<?xml version="1.0" encoding="UTF-8" standalone="no"?>
<!-- Created with Inkscape (http://www.inkscape.org/) -->

<svg
   xmlns:dc="http://purl.org/dc/elements/1.1/"
   xmlns:cc="http://creativecommons.org/ns#"
   xmlns:rdf="http://www.w3.org/1999/02/22-rdf-syntax-ns#"
   xmlns:svg="http://www.w3.org/2000/svg"
   xmlns="http://www.w3.org/2000/svg"
   xmlns:sodipodi="http://sodipodi.sourceforge.net/DTD/sodipodi-0.dtd"
   xmlns:inkscape="http://www.inkscape.org/namespaces/inkscape"
   width="67.681854mm"
   height="145.49922mm"
   viewBox="0 0 67.681854 145.49922"
   version="1.1"
   id="svg48"
   inkscape:version="0.92.4 (5da689c313, 2019-01-14)"
   sodipodi:docname="arrow.svg">
  <defs
     id="defs42" />
  <sodipodi:namedview
     id="base"
     pagecolor="#00000000"
     bordercolor="#666666"
     borderopacity="1.0"
     inkscape:pageopacity="0.0"
     inkscape:pageshadow="2"
     inkscape:zoom="1.979899"
     inkscape:cx="185.91766"
     inkscape:cy="250.15716"
     inkscape:document-units="mm"
     inkscape:current-layer="layer1"
     showgrid="false"
     inkscape:window-width="1920"
     inkscape:window-height="1027"
     inkscape:window-x="3832"
     inkscape:window-y="-8"
     inkscape:window-maximized="1"
     fit-margin-top="0"
     fit-margin-left="0"
     fit-margin-right="0"
     fit-margin-bottom="0" />
  <metadata
     id="metadata45">
    <rdf:RDF>
      <cc:Work
         rdf:about="">
        <dc:format>image/svg+xml</dc:format>
        <dc:type
           rdf:resource="http://purl.org/dc/dcmitype/StillImage" />
        <dc:title></dc:title>
      </cc:Work>
    </rdf:RDF>
  </metadata>
  <g
     inkscape:label="Ebene 1"
     inkscape:groupmode="layer"
     id="layer1"
     transform="translate(-68.864441,-17.865347)">
    <path
       style="fill:#ffffff;stroke:#000000;stroke-width:0.26458332px;stroke-linecap:butt;stroke-linejoin:miter;stroke-opacity:1"
       d="m 69.547617,152.4241 c 0,0 17.197917,-21.35565 18.520834,-46.86904 C 89.391367,80.041664 89.481,52.172 89.481,52.172 L 69.169642,52.071428 101.254,18.054 136.22128,52.172 H 113.027 c 0,0 1.87776,55.27294 -1.33504,70.76996 -3.21279,15.49703 -17.008926,40.25404 -17.008926,40.25404 z"
       id="path74"
       inkscape:connector-curvature="0"
       sodipodi:nodetypes="cscccccscc" />
    <path
       style="fill:#ffffff;stroke-width:0.50507629"
       d="M 50.178409,528.20125 C 24.829893,517.31792 4.0901989,508.29104 4.0901989,508.14154 c 0,-0.14955 1.50751,-2.30993 3.3500222,-4.80086 4.7455979,-6.41567 13.9515579,-20.4615 18.8582279,-28.77262 25.057514,-42.44342 40.734502,-86.36009 45.705462,-128.03684 2.553545,-21.40898 5.238272,-103.81462 6.535662,-200.60694 l 0.228022,-17.01172 -37.296911,-0.16087 C 20.957383,128.66321 4.0201296,128.43703 3.8323448,128.24908 3.4352538,127.85164 121.70744,2.3217442 122.479,2.3217442 c 0.28418,0 29.62755,28.4105408 65.20748,63.1345338 l 64.69079,63.134532 -43.14842,0.1291 -43.14843,0.12911 0.32535,8.96227 c 1.6214,44.66391 2.16426,154.56231 0.91998,186.24404 -1.66555,42.40806 -3.72125,63.21635 -7.95467,80.51936 -4.83776,19.77305 -17.07653,51.94424 -31.91132,83.88297 -10.48964,22.58378 -29.52492,59.62774 -30.60797,59.56521 -0.321845,-0.0187 -21.324866,-8.93834 -46.673381,-19.82162 z"
       id="path76"
       inkscape:connector-curvature="0"
       transform="matrix(0.26458333,0,0,0.26458333,68.864441,17.865347)" />
  </g>
</svg>
