<svg id="svg" xmlns="http://www.w3.org/2000/svg" xmlns:xlink="http://www.w3.org/1999/xlink" width="400" height="400" viewBox="0, 0, 400,400"><g id="svgg"><path id="path0" d="M157.918 128.497 C 157.704 128.843,157.009 131.180,156.512 133.224 C 154.969 139.567,154.872 144.630,156.188 150.152 C 156.609 151.917,156.605 151.929,155.080 153.833 C 150.777 159.208,149.009 163.445,147.713 171.490 C 147.349 173.753,147.302 181.762,147.639 184.167 C 150.556 204.973,161.853 214.449,187.583 217.669 C 190.071 217.981,190.912 218.177,190.656 218.387 C 190.616 218.420,189.721 218.802,188.667 219.237 C 183.745 221.268,181.395 223.391,179.823 227.229 C 178.600 230.213,172.584 232.285,167.647 231.423 C 162.833 230.581,159.120 227.932,153.730 221.496 C 148.238 214.937,142.899 212.850,140.105 216.171 C 139.412 216.994,139.279 216.815,144.186 221.680 C 148.269 225.729,149.248 226.963,151.333 230.687 C 154.027 235.497,156.676 238.287,160.207 240.036 C 165.810 242.811,171.615 243.515,177.101 242.086 C 178.319 241.768,178.272 241.680,178.415 244.565 C 178.478 245.858,178.557 247.208,178.590 247.563 C 179.566 258.295,178.819 260.819,173.636 264.301 C 170.246 266.579,171.457 268.178,176.403 267.956 C 182.047 267.702,185.889 265.192,187.275 260.853 C 187.480 260.213,187.531 258.132,187.580 248.486 C 187.642 236.307,187.649 236.181,188.419 234.663 C 189.075 233.368,190.839 232.000,191.854 232.000 C 192.157 232.000,192.167 232.417,192.161 246.208 C 192.155 264.679,192.217 264.221,188.963 269.628 C 188.507 270.387,188.170 271.101,188.214 271.217 C 188.397 271.694,189.872 271.871,191.341 271.592 C 196.668 270.581,199.424 268.125,201.081 262.910 C 201.991 260.044,201.999 259.897,201.999 244.712 L 202.000 230.673 202.375 230.580 C 202.581 230.529,203.800 230.509,205.083 230.535 L 207.417 230.583 207.512 244.750 C 207.612 259.752,207.588 259.284,208.407 262.370 C 209.778 267.539,212.819 270.257,218.417 271.318 C 220.016 271.621,221.072 271.622,221.259 271.319 C 221.354 271.165,219.899 268.130,219.369 267.378 C 217.423 264.616,217.313 263.425,217.371 245.750 L 217.417 231.917 217.788 231.956 C 219.142 232.098,221.052 233.656,221.765 235.200 L 222.250 236.250 222.347 248.333 C 222.461 262.643,222.381 262.120,224.797 264.357 C 227.642 266.990,230.038 267.887,234.279 267.905 C 237.482 267.919,237.876 267.770,237.969 266.513 C 238.032 265.646,237.962 265.561,236.266 264.432 C 233.863 262.833,231.652 260.234,231.434 258.750 C 231.380 258.383,231.258 252.721,231.163 246.167 C 230.993 234.378,230.898 232.391,230.409 230.388 C 229.233 225.574,227.088 222.844,222.180 219.915 C 220.799 219.091,219.693 218.342,219.723 218.250 C 219.780 218.075,220.095 218.026,224.000 217.587 C 243.236 215.422,255.904 205.369,259.083 189.747 C 262.086 174.988,259.509 161.452,251.985 152.469 C 250.597 150.812,250.455 150.508,250.657 149.627 C 251.808 144.600,250.981 134.281,249.015 129.121 C 248.747 128.418,248.532 128.406,244.845 128.899 C 237.682 129.855,234.803 130.951,227.127 135.645 C 224.940 136.982,224.605 137.090,223.417 136.840 C 220.416 136.207,217.893 135.803,212.917 135.157 C 210.726 134.872,199.899 134.756,197.167 134.987 C 192.188 135.409,185.059 136.542,183.387 137.178 C 182.338 137.577,181.723 137.391,179.861 136.113 C 174.259 132.265,169.155 130.181,162.667 129.091 C 161.796 128.945,160.708 128.756,160.250 128.672 C 158.442 128.340,158.034 128.310,157.918 128.497 " stroke="none" fill="#fbfbfb" fill-rule="evenodd"></path><path id="path1" d="M189.750 22.351 C 186.736 22.621,184.368 22.820,182.250 22.983 C 181.058 23.075,179.577 23.229,178.958 23.325 C 178.340 23.421,177.327 23.571,176.708 23.658 C 176.090 23.745,175.096 23.893,174.500 23.987 C 173.904 24.081,172.871 24.208,172.203 24.270 C 171.536 24.332,170.950 24.446,170.902 24.524 C 170.853 24.603,170.458 24.667,170.023 24.667 C 169.589 24.667,169.162 24.734,169.075 24.817 C 168.988 24.900,168.579 25.007,168.167 25.056 C 167.360 25.150,165.345 25.506,163.333 25.909 C 162.156 26.146,161.707 26.248,160.083 26.650 C 159.717 26.740,158.892 26.930,158.250 27.070 C 156.994 27.345,156.778 27.399,154.250 28.086 C 153.333 28.335,151.967 28.703,151.214 28.903 C 150.460 29.103,149.792 29.320,149.728 29.384 C 149.664 29.448,149.441 29.500,149.232 29.500 C 149.024 29.500,148.807 29.575,148.750 29.667 C 148.693 29.758,148.518 29.833,148.361 29.833 C 148.203 29.833,147.476 30.023,146.745 30.256 C 146.015 30.488,145.042 30.791,144.583 30.929 C 144.125 31.067,143.600 31.247,143.417 31.329 C 143.233 31.412,142.483 31.675,141.750 31.914 C 141.017 32.153,140.229 32.430,140.000 32.530 C 139.386 32.797,139.033 32.928,137.833 33.333 C 137.237 33.535,136.581 33.767,136.375 33.850 C 136.169 33.932,135.831 34.065,135.625 34.144 C 135.419 34.224,135.063 34.372,134.833 34.473 C 134.604 34.574,133.817 34.886,133.083 35.167 C 132.350 35.447,131.600 35.742,131.417 35.821 C 131.233 35.901,130.821 36.079,130.500 36.216 C 130.179 36.354,129.183 36.811,128.287 37.233 C 127.391 37.655,126.617 38.000,126.568 38.000 C 126.471 38.000,124.760 38.759,124.292 39.010 C 123.941 39.198,124.079 39.130,120.667 40.817 C 117.049 42.607,114.591 43.916,111.601 45.643 C 110.786 46.115,110.055 46.500,109.976 46.500 C 109.898 46.500,109.833 46.575,109.833 46.667 C 109.833 46.758,109.766 46.833,109.684 46.833 C 109.528 46.833,108.075 47.694,106.186 48.904 C 105.580 49.293,105.004 49.642,104.908 49.681 C 104.492 49.846,96.057 55.597,95.333 56.209 C 95.196 56.326,94.428 56.893,93.627 57.470 C 92.826 58.048,92.076 58.609,91.960 58.718 C 91.845 58.827,91.112 59.403,90.333 59.996 C 83.897 64.901,72.955 75.065,68.414 80.356 C 68.049 80.782,66.958 82.019,65.991 83.106 C 64.325 84.978,61.805 87.982,60.784 89.310 C 60.528 89.644,60.190 90.067,60.033 90.250 C 59.786 90.539,55.673 96.036,54.871 97.149 C 54.173 98.118,49.450 105.185,49.290 105.500 C 49.220 105.638,49.032 105.949,48.873 106.192 C 48.319 107.038,45.955 111.024,45.033 112.667 C 44.801 113.079,44.462 113.679,44.278 114.000 C 43.203 115.880,39.567 123.053,38.405 125.583 C 37.367 127.845,36.833 129.035,36.833 129.087 C 36.833 129.118,36.617 129.617,36.352 130.197 C 36.088 130.776,35.595 131.962,35.259 132.833 C 34.922 133.704,34.576 134.585,34.490 134.792 C 34.306 135.231,34.145 135.641,33.753 136.667 C 33.595 137.079,33.404 137.539,33.328 137.688 C 33.252 137.837,33.138 138.231,33.076 138.563 C 33.014 138.895,32.896 139.167,32.815 139.167 C 32.733 139.167,32.667 139.318,32.667 139.502 C 32.667 139.821,32.616 139.960,32.214 140.755 C 32.120 140.942,31.987 141.354,31.919 141.672 C 31.851 141.990,31.741 142.325,31.676 142.417 C 31.611 142.508,31.350 143.258,31.097 144.083 C 30.844 144.908,30.580 145.733,30.511 145.917 C 30.160 146.849,29.833 148.000,29.833 148.304 C 29.833 148.493,29.758 148.693,29.667 148.750 C 29.575 148.807,29.500 149.000,29.500 149.179 C 29.500 149.358,29.426 149.635,29.336 149.794 C 29.246 149.953,28.977 150.833,28.738 151.750 C 28.500 152.667,28.155 153.979,27.971 154.667 C 27.271 157.296,27.004 158.429,27.002 158.782 C 27.001 158.983,26.933 159.188,26.851 159.239 C 26.769 159.290,26.663 159.613,26.615 159.957 C 26.566 160.302,26.445 160.921,26.344 161.333 C 25.938 162.991,25.195 166.929,25.053 168.167 C 25.006 168.579,24.900 168.988,24.817 169.075 C 24.734 169.162,24.667 169.589,24.667 170.023 C 24.667 170.458,24.601 170.854,24.522 170.903 C 24.442 170.952,24.324 171.613,24.260 172.371 C 24.196 173.130,24.079 174.050,24.001 174.417 C 23.922 174.783,23.773 175.758,23.669 176.583 C 23.565 177.408,23.410 178.496,23.324 179.000 C 23.238 179.504,23.085 180.967,22.983 182.250 C 22.731 185.422,22.555 187.542,22.349 189.917 C 22.129 192.437,22.128 207.798,22.347 210.250 C 22.544 212.452,22.745 214.828,22.981 217.750 C 23.077 218.942,23.236 220.479,23.334 221.167 C 23.558 222.740,23.801 224.410,23.915 225.167 C 23.963 225.487,24.117 226.537,24.257 227.500 C 24.506 229.223,24.658 230.104,24.987 231.750 C 25.079 232.208,25.264 233.221,25.400 234.000 C 25.806 236.332,26.214 238.325,26.645 240.083 C 26.735 240.450,26.934 241.275,27.086 241.917 C 27.239 242.558,27.426 243.346,27.503 243.667 C 27.580 243.987,27.840 244.963,28.081 245.833 C 28.322 246.704,28.687 248.070,28.892 248.869 C 29.097 249.667,29.318 250.374,29.383 250.438 C 29.447 250.503,29.500 250.726,29.500 250.935 C 29.500 251.143,29.575 251.360,29.667 251.417 C 29.758 251.473,29.833 251.698,29.833 251.917 C 29.833 252.135,29.900 252.355,29.981 252.405 C 30.062 252.455,30.180 252.778,30.243 253.123 C 30.348 253.702,30.713 254.954,31.009 255.750 C 31.077 255.933,31.223 256.346,31.333 256.667 C 31.444 256.987,31.594 257.400,31.669 257.583 C 31.743 257.767,31.926 258.329,32.075 258.833 C 32.338 259.723,32.549 260.275,32.853 260.873 C 32.934 261.032,33.000 261.246,33.000 261.348 C 33.000 261.450,33.102 261.769,33.228 262.058 C 33.353 262.347,33.660 263.146,33.911 263.833 C 34.161 264.521,34.464 265.308,34.583 265.583 C 34.702 265.858,35.005 266.608,35.258 267.250 C 35.510 267.892,35.930 268.887,36.191 269.463 C 36.453 270.038,36.667 270.554,36.667 270.610 C 36.667 270.666,36.973 271.358,37.346 272.148 C 37.720 272.937,38.090 273.733,38.167 273.917 C 38.571 274.868,40.932 279.777,41.295 280.417 C 41.399 280.600,41.615 281.050,41.775 281.417 C 41.935 281.783,42.109 282.121,42.161 282.167 C 42.214 282.212,42.593 282.925,43.003 283.750 C 43.414 284.575,43.788 285.287,43.833 285.333 C 43.879 285.379,43.998 285.567,44.098 285.750 C 44.565 286.607,45.193 287.708,46.000 289.083 C 46.484 289.908,46.963 290.751,47.065 290.957 C 47.167 291.163,47.306 291.331,47.375 291.332 C 47.444 291.333,47.500 291.419,47.500 291.524 C 47.500 291.743,48.821 293.881,50.700 296.703 C 51.415 297.778,52.000 298.728,52.000 298.815 C 52.000 298.901,52.060 298.997,52.133 299.028 C 52.207 299.058,52.778 299.848,53.403 300.782 C 54.028 301.716,54.662 302.620,54.812 302.791 C 54.961 302.962,55.158 303.222,55.250 303.369 C 55.564 303.873,56.885 305.750,56.984 305.833 C 57.039 305.879,57.421 306.366,57.834 306.915 C 58.882 308.312,61.390 311.566,61.496 311.667 C 61.544 311.712,61.868 312.104,62.216 312.538 C 62.564 312.971,62.940 313.421,63.051 313.538 C 63.163 313.654,63.628 314.200,64.085 314.750 C 64.543 315.300,64.955 315.787,65.003 315.833 C 65.050 315.879,65.304 316.179,65.566 316.500 C 66.120 317.176,68.044 319.324,69.819 321.246 C 71.667 323.247,77.497 329.021,79.583 330.917 C 80.592 331.834,81.529 332.700,81.667 332.842 C 81.999 333.186,86.074 336.648,87.744 338.005 C 89.355 339.315,89.255 339.235,91.000 340.583 C 91.779 341.185,92.529 341.770,92.667 341.883 C 92.804 341.997,93.592 342.575,94.417 343.170 C 96.264 344.500,96.146 344.414,96.750 344.888 C 98.217 346.040,107.044 351.833,107.333 351.833 C 107.409 351.833,107.497 351.890,107.528 351.960 C 107.578 352.075,108.873 352.858,110.833 353.960 C 111.246 354.191,111.771 354.505,112.000 354.658 C 112.229 354.810,112.904 355.187,113.500 355.496 C 114.096 355.805,114.846 356.208,115.167 356.390 C 119.330 358.757,130.316 364.000,131.113 364.000 C 131.234 364.000,131.333 364.075,131.333 364.167 C 131.333 364.258,131.447 364.333,131.586 364.333 C 131.724 364.333,131.968 364.408,132.127 364.498 C 132.620 364.779,134.995 365.667,135.254 365.667 C 135.389 365.667,135.500 365.742,135.500 365.833 C 135.500 365.925,135.614 366.000,135.752 366.000 C 135.891 366.000,136.135 366.070,136.294 366.155 C 136.665 366.353,139.496 367.404,140.583 367.747 C 141.042 367.892,141.539 368.078,141.688 368.161 C 141.837 368.243,142.232 368.362,142.565 368.424 C 142.898 368.487,143.211 368.604,143.262 368.686 C 143.312 368.767,143.532 368.833,143.750 368.833 C 143.968 368.833,144.193 368.908,144.250 369.000 C 144.307 369.092,144.500 369.167,144.679 369.167 C 144.858 369.167,145.135 369.238,145.294 369.325 C 145.453 369.411,146.146 369.643,146.833 369.840 C 148.976 370.454,149.242 370.537,149.539 370.687 C 149.699 370.768,149.981 370.833,150.167 370.833 C 150.352 370.833,150.635 370.901,150.794 370.984 C 150.953 371.066,151.383 371.213,151.750 371.309 C 152.979 371.632,154.413 372.033,154.833 372.172 C 155.063 372.248,156.300 372.543,157.583 372.829 C 158.867 373.114,160.147 373.420,160.428 373.507 C 160.710 373.595,161.137 373.667,161.377 373.667 C 161.617 373.667,161.855 373.734,161.906 373.816 C 161.956 373.898,162.280 374.005,162.624 374.054 C 162.968 374.103,163.850 374.261,164.583 374.404 C 165.317 374.548,166.629 374.785,167.500 374.931 C 168.371 375.076,169.458 375.268,169.917 375.357 C 170.375 375.447,171.088 375.557,171.500 375.602 C 171.912 375.647,172.400 375.747,172.583 375.823 C 172.767 375.899,173.667 376.053,174.583 376.164 C 176.195 376.360,177.638 376.535,180.083 376.832 C 180.725 376.910,182.787 377.092,184.667 377.238 C 186.546 377.383,188.314 377.577,188.595 377.668 C 189.273 377.887,211.062 377.893,211.461 377.674 C 211.620 377.587,213.362 377.392,215.333 377.241 C 217.304 377.090,219.442 376.902,220.083 376.823 C 225.232 376.185,226.647 375.989,228.458 375.659 C 230.693 375.253,231.174 375.166,232.500 374.932 C 233.279 374.795,234.554 374.563,235.333 374.416 C 236.112 374.270,237.012 374.112,237.333 374.065 C 237.654 374.018,238.067 373.915,238.250 373.836 C 238.602 373.684,239.055 373.579,240.417 373.333 C 240.875 373.250,241.512 373.106,241.833 373.013 C 242.154 372.920,243.054 372.685,243.833 372.490 C 244.612 372.296,245.475 372.074,245.750 371.996 C 247.441 371.519,248.314 371.296,248.793 371.218 C 249.092 371.170,249.378 371.063,249.428 370.982 C 249.478 370.900,249.666 370.833,249.845 370.833 C 250.025 370.833,250.301 370.765,250.461 370.682 C 250.620 370.599,251.612 370.286,252.667 369.988 C 253.721 369.689,254.655 369.382,254.742 369.305 C 254.829 369.229,255.074 369.167,255.286 369.167 C 255.498 369.167,255.801 369.093,255.961 369.004 C 256.120 368.914,257.188 368.532,258.333 368.153 C 259.479 367.775,260.717 367.333,261.083 367.171 C 261.450 367.009,261.938 366.825,262.167 366.761 C 262.396 366.698,262.752 366.575,262.958 366.490 C 263.165 366.404,263.521 366.258,263.750 366.167 C 263.979 366.075,264.335 365.930,264.542 365.845 C 264.748 365.760,265.442 365.490,266.083 365.245 C 267.325 364.771,267.784 364.580,269.040 364.019 C 269.474 363.825,269.872 363.667,269.924 363.667 C 270.032 363.667,270.195 363.594,275.245 361.282 C 276.342 360.779,282.880 357.505,284.500 356.647 C 284.912 356.429,285.275 356.194,285.306 356.125 C 285.336 356.056,285.429 356.000,285.512 356.000 C 285.709 356.000,288.879 354.244,289.780 353.637 C 290.163 353.378,290.523 353.167,290.580 353.167 C 290.763 353.167,297.414 348.965,297.472 348.813 C 297.503 348.732,297.600 348.667,297.688 348.667 C 297.892 348.667,299.800 347.387,302.639 345.347 C 303.861 344.469,305.076 343.600,305.339 343.417 C 306.000 342.957,310.397 339.619,310.500 339.500 C 310.546 339.446,311.296 338.833,312.167 338.138 C 313.037 337.442,314.500 336.219,315.417 335.420 C 316.333 334.622,317.646 333.478,318.333 332.879 C 321.621 330.013,327.503 324.218,331.167 320.235 C 332.578 318.701,333.375 317.805,333.895 317.167 C 334.156 316.846,334.683 316.246,335.064 315.833 C 335.666 315.183,336.598 314.063,339.167 310.903 C 339.487 310.508,340.012 309.835,340.333 309.408 C 340.654 308.980,341.142 308.352,341.417 308.012 C 341.692 307.671,342.067 307.184,342.250 306.930 C 342.582 306.468,343.379 305.400,343.626 305.083 C 344.322 304.194,347.295 299.890,348.634 297.833 C 349.559 296.412,350.395 295.159,350.491 295.049 C 350.588 294.938,350.667 294.803,350.667 294.749 C 350.667 294.695,350.936 294.230,351.264 293.716 C 352.756 291.385,354.540 288.352,355.509 286.500 C 355.820 285.904,356.115 285.379,356.164 285.333 C 356.471 285.044,362.667 272.592,362.667 272.264 C 362.667 272.223,362.892 271.704,363.167 271.110 C 363.442 270.516,363.667 269.988,363.667 269.936 C 363.667 269.885,363.846 269.447,364.065 268.963 C 364.465 268.080,364.980 266.825,365.453 265.583 C 365.848 264.544,365.987 264.196,366.166 263.792 C 366.373 263.325,367.108 261.334,367.442 260.333 C 367.580 259.921,367.758 259.433,367.836 259.250 C 367.915 259.067,368.175 258.317,368.414 257.583 C 368.653 256.850,368.911 256.100,368.988 255.917 C 369.065 255.733,369.258 255.133,369.418 254.583 C 369.578 254.033,369.774 253.453,369.854 253.294 C 369.934 253.135,370.000 252.896,370.000 252.764 C 370.000 252.525,370.745 250.054,371.009 249.417 C 371.085 249.233,371.308 248.446,371.505 247.667 C 371.702 246.887,371.925 246.025,372.001 245.750 C 372.621 243.499,373.332 240.502,373.332 240.135 C 373.333 239.888,373.400 239.645,373.482 239.595 C 373.563 239.544,373.671 239.259,373.722 238.960 C 373.773 238.661,373.888 238.079,373.978 237.667 C 374.203 236.629,374.625 234.373,374.928 232.583 C 375.067 231.758,375.253 230.708,375.340 230.250 C 375.643 228.655,375.845 227.405,376.092 225.583 C 376.228 224.575,376.420 223.188,376.517 222.500 C 376.838 220.227,376.967 218.954,377.243 215.333 C 377.393 213.362,377.588 211.620,377.675 211.461 C 377.893 211.062,377.887 189.272,377.668 188.595 C 377.577 188.314,377.385 186.546,377.241 184.667 C 376.993 181.419,376.907 180.583,376.520 177.667 C 375.964 173.471,375.826 172.486,375.672 171.625 C 375.305 169.578,375.178 168.870,374.943 167.583 C 374.810 166.850,374.581 165.575,374.436 164.750 C 374.185 163.329,374.039 162.651,373.676 161.208 C 373.589 160.865,373.395 160.021,373.244 159.333 C 373.094 158.646,372.906 157.821,372.828 157.500 C 372.426 155.857,372.172 154.860,372.021 154.333 C 371.930 154.012,371.734 153.300,371.587 152.750 C 371.439 152.200,371.241 151.487,371.146 151.167 C 371.050 150.846,370.933 150.376,370.884 150.123 C 370.835 149.870,370.729 149.622,370.647 149.571 C 370.566 149.521,370.500 149.302,370.500 149.083 C 370.500 148.865,370.425 148.640,370.333 148.583 C 370.242 148.527,370.167 148.347,370.167 148.185 C 370.167 147.832,369.546 145.705,369.324 145.294 C 369.237 145.135,369.167 144.858,369.167 144.679 C 369.167 144.500,369.092 144.307,369.000 144.250 C 368.908 144.193,368.833 144.000,368.833 143.821 C 368.833 143.642,368.764 143.365,368.679 143.206 C 368.594 143.047,368.403 142.504,368.256 142.000 C 368.108 141.496,367.924 140.933,367.847 140.750 C 367.769 140.567,367.504 139.854,367.257 139.167 C 367.010 138.479,366.692 137.617,366.551 137.250 C 366.409 136.883,366.237 136.433,366.169 136.250 C 365.975 135.730,365.728 135.122,365.527 134.667 C 365.425 134.438,365.188 133.837,365.000 133.333 C 364.812 132.829,364.592 132.267,364.512 132.083 C 364.158 131.268,363.835 130.512,363.447 129.583 C 362.420 127.131,358.098 118.073,357.840 117.833 C 357.790 117.787,357.488 117.225,357.167 116.583 C 356.846 115.942,356.527 115.392,356.458 115.361 C 356.390 115.331,356.333 115.168,356.333 115.000 C 356.333 114.832,356.277 114.669,356.208 114.639 C 356.140 114.608,355.867 114.171,355.603 113.667 C 355.339 113.162,354.920 112.412,354.672 112.000 C 354.423 111.587,353.782 110.500,353.246 109.583 C 351.903 107.284,349.204 102.969,348.858 102.567 C 348.771 102.466,348.307 101.756,347.827 100.990 C 347.347 100.224,346.851 99.494,346.726 99.369 C 346.600 99.243,346.411 98.978,346.305 98.780 C 346.022 98.252,344.446 96.093,344.295 96.028 C 344.225 95.997,344.167 95.905,344.167 95.822 C 344.167 95.739,343.773 95.159,343.292 94.532 C 342.810 93.905,342.229 93.143,342.000 92.838 C 341.771 92.534,341.133 91.707,340.583 91.000 C 340.033 90.293,339.396 89.466,339.167 89.161 C 338.938 88.855,338.487 88.296,338.167 87.918 C 337.846 87.539,337.246 86.827,336.833 86.334 C 335.308 84.511,333.081 81.906,332.754 81.562 C 332.568 81.367,331.779 80.505,331.000 79.647 C 329.452 77.942,322.684 71.130,321.083 69.665 C 318.433 67.240,316.487 65.527,314.420 63.802 C 314.235 63.647,313.896 63.357,313.667 63.156 C 313.438 62.956,312.725 62.375,312.083 61.864 C 311.442 61.353,310.879 60.893,310.833 60.842 C 310.608 60.593,305.317 56.610,304.167 55.824 C 303.571 55.416,303.046 55.041,303.000 54.990 C 302.615 54.558,293.497 48.536,291.917 47.670 C 291.367 47.369,290.842 47.064,290.750 46.992 C 290.529 46.820,287.248 44.936,285.250 43.834 C 283.789 43.029,274.681 38.456,273.998 38.186 C 273.678 38.059,272.875 37.703,272.213 37.394 C 271.551 37.086,270.972 36.833,270.926 36.833 C 270.880 36.833,270.447 36.654,269.963 36.436 C 267.885 35.497,267.419 35.299,266.526 34.980 C 265.495 34.611,265.280 34.526,264.167 34.038 C 263.754 33.858,263.229 33.658,263.000 33.595 C 262.771 33.531,262.433 33.418,262.250 33.343 C 262.067 33.268,261.354 33.005,260.667 32.759 C 259.979 32.513,259.302 32.251,259.161 32.177 C 259.021 32.103,258.646 31.987,258.328 31.919 C 258.010 31.851,257.675 31.744,257.583 31.682 C 257.492 31.620,257.117 31.474,256.750 31.357 C 256.383 31.240,255.933 31.085,255.750 31.012 C 255.567 30.940,254.967 30.749,254.417 30.589 C 253.867 30.429,253.114 30.194,252.744 30.066 C 252.375 29.938,251.906 29.833,251.703 29.833 C 251.500 29.833,251.333 29.758,251.333 29.667 C 251.333 29.575,251.113 29.500,250.843 29.500 C 250.574 29.500,250.312 29.434,250.262 29.353 C 250.212 29.271,249.964 29.164,249.710 29.114 C 249.457 29.064,248.838 28.912,248.333 28.776 C 245.559 28.025,244.826 27.826,243.917 27.574 C 242.819 27.270,241.032 26.858,240.250 26.727 C 239.975 26.681,239.600 26.579,239.417 26.500 C 239.233 26.421,238.858 26.316,238.583 26.267 C 238.308 26.219,237.483 26.059,236.750 25.913 C 234.993 25.562,232.747 25.168,231.917 25.064 C 231.550 25.018,231.100 24.915,230.917 24.833 C 230.733 24.752,230.283 24.648,229.917 24.602 C 229.550 24.555,228.463 24.399,227.500 24.255 C 224.819 23.852,223.525 23.669,222.250 23.510 C 221.608 23.430,220.858 23.319,220.583 23.264 C 220.308 23.210,219.071 23.084,217.833 22.986 C 213.435 22.635,212.060 22.521,210.167 22.347 C 207.958 22.145,192.017 22.148,189.750 22.351 M161.417 128.669 C 166.762 129.611,168.528 130.081,171.833 131.446 C 174.574 132.577,178.481 134.786,180.592 136.397 C 181.577 137.149,181.968 137.255,182.967 137.037 C 189.225 135.674,190.325 135.480,194.083 135.077 C 203.118 134.108,212.349 134.492,221.083 136.200 C 222.092 136.397,223.387 136.589,223.962 136.627 L 225.007 136.695 228.212 134.775 C 235.489 130.415,238.442 129.398,246.457 128.490 C 249.247 128.173,249.085 127.950,250.503 134.083 C 251.425 138.074,251.684 143.234,251.171 147.417 C 251.081 148.150,250.960 149.200,250.902 149.750 L 250.797 150.750 251.915 152.083 C 255.928 156.870,258.817 163.331,259.815 169.750 C 259.915 170.392,260.089 171.479,260.201 172.167 C 260.328 172.942,260.406 175.222,260.408 178.167 C 260.411 182.632,260.316 184.044,259.829 186.750 C 259.747 187.208,259.597 188.071,259.495 188.667 C 257.195 202.196,247.967 211.739,232.917 216.153 C 232.642 216.234,231.854 216.424,231.167 216.576 C 230.479 216.728,229.617 216.920,229.250 217.004 C 228.107 217.265,223.272 217.929,221.292 218.096 C 219.645 218.236,219.616 218.186,222.212 219.716 C 229.716 224.138,231.332 227.954,231.334 241.259 C 231.334 243.638,231.411 248.696,231.504 252.500 L 231.674 259.417 232.447 260.555 C 233.361 261.900,234.905 263.331,236.748 264.542 C 238.565 265.735,238.823 267.082,237.383 267.851 C 236.588 268.275,231.701 268.165,230.167 267.688 C 226.851 266.658,223.484 263.959,222.656 261.667 L 222.264 260.583 222.173 248.500 C 222.123 241.854,222.019 236.267,221.942 236.083 C 221.054 233.963,219.157 232.167,217.805 232.167 C 217.399 232.167,217.410 260.514,217.817 262.667 C 218.195 264.665,218.523 265.575,219.410 267.083 C 221.941 271.385,221.966 272.059,219.583 271.739 C 213.841 270.967,210.258 268.402,208.713 263.958 C 207.363 260.075,207.333 259.657,207.333 244.221 L 207.333 230.833 204.750 230.833 L 202.167 230.833 202.167 244.958 C 202.167 260.432,202.182 260.160,201.156 263.229 C 200.199 266.094,198.803 268.229,197.036 269.535 C 194.834 271.162,191.018 272.252,189.059 271.813 C 187.744 271.519,187.688 271.365,188.442 270.131 C 190.532 266.707,191.087 265.430,191.616 262.833 C 192.020 260.850,192.154 232.167,191.759 232.167 C 190.952 232.167,189.363 233.356,188.732 234.432 C 187.827 235.977,187.826 235.987,187.767 248.583 L 187.712 260.250 187.266 261.412 C 186.015 264.673,183.742 266.557,179.583 267.778 C 177.140 268.496,172.559 268.200,171.916 267.282 C 171.155 266.196,171.689 265.358,174.221 263.665 C 178.307 260.932,179.220 257.952,178.536 249.583 C 178.431 248.300,178.295 246.106,178.234 244.708 C 178.108 241.807,178.252 241.992,176.451 242.402 C 174.133 242.930,173.549 243.000,171.446 242.997 C 168.805 242.993,166.381 242.601,164.083 241.807 C 157.499 239.532,155.193 237.535,150.995 230.477 C 148.360 226.047,148.104 225.737,142.790 220.500 C 138.847 216.615,138.785 216.404,141.195 215.079 C 144.463 213.283,148.870 215.448,153.773 221.260 C 159.417 227.951,162.801 230.353,167.927 231.311 C 172.449 232.156,178.295 230.040,179.680 227.055 C 181.604 222.910,183.630 221.095,188.583 219.078 C 190.521 218.289,190.569 218.224,189.307 218.095 C 188.726 218.035,187.762 217.915,187.167 217.827 C 186.571 217.740,185.258 217.550,184.250 217.407 C 165.097 214.673,153.226 206.305,149.180 192.684 C 147.049 185.512,146.531 175.606,147.941 169.000 C 148.088 168.313,148.244 167.563,148.289 167.333 C 149.200 162.661,151.404 158.133,154.888 153.777 C 156.482 151.785,156.437 151.907,156.077 150.550 C 155.055 146.702,154.816 141.059,155.506 137.088 C 156.046 133.980,156.950 130.406,157.646 128.625 C 157.872 128.048,157.895 128.048,161.417 128.669 " stroke="none" fill="#040404" fill-rule="evenodd"></path><path id="path2" d="M157.645 128.625 C 157.037 130.169,155.975 134.241,155.655 136.250 C 155.287 138.567,154.885 143.337,155.074 143.149 C 155.120 143.102,155.240 141.980,155.338 140.657 C 155.613 136.976,156.492 132.540,157.549 129.500 L 157.926 128.417 158.588 128.451 C 158.952 128.470,159.662 128.562,160.167 128.654 C 160.671 128.746,161.796 128.942,162.667 129.090 C 169.176 130.190,174.260 132.266,179.861 136.113 C 181.723 137.391,182.338 137.577,183.387 137.178 C 184.511 136.751,190.751 135.644,193.917 135.311 C 194.833 135.215,195.621 135.095,195.667 135.046 C 195.789 134.914,192.986 135.152,191.250 135.422 C 188.343 135.873,188.039 135.932,182.967 137.037 C 181.968 137.255,181.577 137.149,180.592 136.397 C 178.481 134.786,174.574 132.577,171.833 131.446 C 168.528 130.081,166.762 129.611,161.417 128.669 C 157.895 128.048,157.872 128.048,157.645 128.625 M246.167 128.515 C 241.077 129.173,239.558 129.473,237.000 130.325 C 235.193 130.926,231.595 132.749,228.212 134.775 L 225.007 136.695 223.962 136.627 C 223.387 136.589,222.129 136.404,221.167 136.214 C 219.536 135.893,218.807 135.770,216.000 135.339 C 215.404 135.248,214.242 135.137,213.417 135.093 C 211.745 135.004,212.159 135.081,215.667 135.513 C 217.176 135.698,221.644 136.462,223.417 136.838 C 224.604 137.090,224.939 136.983,227.127 135.645 C 234.803 130.951,237.682 129.855,244.845 128.899 C 248.532 128.406,248.747 128.418,249.015 129.121 C 250.981 134.281,251.808 144.600,250.657 149.627 C 250.455 150.508,250.597 150.812,251.985 152.469 C 255.620 156.809,258.020 162.007,259.464 168.667 C 259.581 169.205,259.632 169.291,259.647 168.970 C 259.672 168.395,258.813 165.021,258.147 163.083 C 256.907 159.473,254.398 155.046,251.915 152.083 L 250.797 150.750 250.902 149.750 C 250.960 149.200,251.081 148.150,251.171 147.417 C 251.684 143.234,251.424 138.053,250.502 134.083 C 249.055 127.854,249.258 128.115,246.167 128.515 M198.618 134.660 C 197.262 134.732,196.125 134.820,196.090 134.854 C 196.056 134.889,199.603 134.917,203.972 134.917 C 208.342 134.917,211.579 134.868,211.167 134.808 C 209.887 134.623,201.213 134.521,198.618 134.660 M155.255 145.167 C 155.323 147.042,155.563 148.611,156.077 150.550 C 156.437 151.907,156.482 151.785,154.888 153.777 C 151.375 158.169,149.233 162.584,148.273 167.417 C 148.218 167.692,148.059 168.442,147.919 169.083 C 147.779 169.725,147.629 170.775,147.587 171.417 C 147.501 172.717,147.602 172.317,148.011 169.750 C 148.989 163.600,151.142 158.752,155.080 153.833 C 156.605 151.928,156.609 151.916,156.187 150.152 C 155.733 148.257,155.512 146.900,155.335 144.917 L 155.186 143.250 155.255 145.167 M259.682 169.703 C 259.673 169.860,259.793 170.835,259.948 171.869 C 260.284 174.114,260.347 182.275,260.041 183.917 C 259.794 185.242,259.604 187.107,259.728 186.990 C 260.337 186.411,260.670 175.592,260.187 172.083 C 259.948 170.345,259.707 169.212,259.682 169.703 M147.273 173.440 C 147.134 174.452,147.159 181.866,147.304 182.833 C 147.366 183.246,147.417 181.127,147.417 178.125 C 147.417 175.123,147.408 172.667,147.398 172.667 C 147.387 172.667,147.331 173.015,147.273 173.440 M147.598 184.750 C 147.831 188.107,149.040 192.875,150.549 196.388 C 154.357 205.255,161.281 210.955,172.964 214.841 C 174.366 215.307,175.641 215.658,175.798 215.621 C 175.992 215.575,175.923 215.514,175.583 215.431 C 169.042 213.834,161.623 209.993,157.526 206.083 C 151.902 200.717,149.423 195.304,147.680 184.583 L 147.517 183.583 147.598 184.750 M259.127 189.477 C 256.064 205.240,243.358 215.408,224.000 217.587 C 220.095 218.026,219.780 218.075,219.723 218.250 C 219.693 218.342,220.799 219.091,222.180 219.915 C 227.088 222.844,229.233 225.574,230.409 230.388 C 230.898 232.391,230.993 234.378,231.163 246.167 C 231.258 252.721,231.380 258.383,231.434 258.750 C 231.652 260.234,233.863 262.833,236.266 264.432 C 237.962 265.561,238.032 265.646,237.969 266.513 C 237.876 267.770,237.482 267.919,234.279 267.905 C 230.038 267.887,227.642 266.990,224.797 264.357 C 222.381 262.120,222.461 262.643,222.347 248.333 L 222.250 236.250 221.765 235.200 C 221.052 233.656,219.142 232.098,217.788 231.956 L 217.417 231.917 217.371 245.750 C 217.313 263.425,217.423 264.616,219.369 267.378 C 219.893 268.122,221.354 271.164,221.261 271.316 C 220.802 272.059,216.155 271.071,213.667 269.701 C 210.563 267.993,208.969 265.330,207.859 260.000 C 207.732 259.391,207.699 259.344,207.686 259.750 C 207.667 260.368,208.150 262.352,208.710 263.955 C 210.266 268.408,213.840 270.967,219.583 271.739 C 221.966 272.059,221.941 271.385,219.410 267.083 C 218.523 265.575,218.195 264.665,217.817 262.667 C 217.410 260.514,217.399 232.167,217.805 232.167 C 219.157 232.167,221.054 233.963,221.942 236.083 C 222.019 236.267,222.123 241.854,222.173 248.500 L 222.264 260.583 222.656 261.667 C 223.484 263.959,226.851 266.658,230.167 267.688 C 231.701 268.165,236.588 268.275,237.383 267.851 C 238.823 267.082,238.565 265.735,236.748 264.542 C 234.905 263.331,233.361 261.900,232.447 260.555 L 231.674 259.417 231.504 252.500 C 231.411 248.696,231.334 243.638,231.334 241.259 C 231.332 227.954,229.716 224.138,222.212 219.716 C 219.616 218.186,219.645 218.236,221.292 218.096 C 223.272 217.929,228.107 217.265,229.250 217.004 C 229.617 216.920,230.479 216.728,231.167 216.576 C 233.439 216.074,236.961 214.900,239.250 213.880 C 248.635 209.697,255.292 202.700,258.154 194.011 C 258.945 191.611,259.759 188.007,259.642 187.421 C 259.610 187.260,259.378 188.185,259.127 189.477 M142.222 214.650 C 140.931 214.982,139.505 216.158,139.496 216.897 C 139.493 217.138,140.540 218.283,142.790 220.500 C 148.104 225.737,148.360 226.047,150.995 230.477 C 155.239 237.612,157.623 239.647,164.379 241.901 C 165.091 242.139,165.803 242.330,165.962 242.327 C 166.120 242.323,165.271 241.994,164.074 241.596 C 157.924 239.552,154.800 236.877,151.333 230.687 C 149.248 226.963,148.269 225.729,144.186 221.680 C 139.279 216.815,139.412 216.994,140.105 216.171 C 142.899 212.850,148.238 214.937,153.730 221.496 C 159.089 227.896,163.474 231.004,167.707 231.404 L 168.583 231.487 167.833 231.317 C 162.434 230.093,159.384 227.912,153.773 221.260 C 149.361 216.030,145.483 213.811,142.222 214.650 M176.167 215.737 C 176.167 215.895,181.777 217.054,184.250 217.407 C 185.258 217.550,186.571 217.740,187.167 217.827 C 187.762 217.915,188.726 218.035,189.307 218.095 C 190.569 218.224,190.521 218.289,188.583 219.078 C 183.630 221.095,181.604 222.910,179.680 227.055 C 178.514 229.567,174.486 231.397,169.833 231.529 L 168.583 231.564 169.667 231.626 C 173.789 231.863,178.816 229.687,179.823 227.229 C 181.395 223.391,183.745 221.268,188.667 219.237 C 189.721 218.802,190.616 218.420,190.656 218.387 C 190.912 218.177,190.071 217.981,187.583 217.669 C 183.765 217.191,178.921 216.337,177.146 215.827 C 176.552 215.657,176.167 215.621,176.167 215.737 M202.208 230.610 C 202.044 230.677,202.000 233.656,201.999 244.722 C 201.999 259.896,201.991 260.044,201.081 262.910 C 199.424 268.125,196.668 270.581,191.341 271.592 C 189.872 271.871,188.397 271.694,188.214 271.217 C 188.170 271.101,188.507 270.387,188.963 269.628 C 192.217 264.221,192.155 264.679,192.161 246.208 C 192.167 232.417,192.157 232.000,191.854 232.000 C 190.839 232.000,189.075 233.368,188.419 234.663 C 187.649 236.181,187.642 236.307,187.580 248.486 C 187.531 258.132,187.480 260.213,187.275 260.853 C 185.889 265.192,182.047 267.702,176.403 267.956 C 171.457 268.178,170.246 266.579,173.636 264.301 C 176.504 262.374,177.778 260.805,178.606 258.183 C 179.071 256.711,179.065 252.794,178.590 247.563 C 178.557 247.208,178.478 245.858,178.415 244.565 C 178.272 241.680,178.319 241.768,177.101 242.086 C 174.179 242.847,170.803 243.030,168.018 242.578 C 167.158 242.439,166.419 242.359,166.376 242.401 C 166.334 242.444,166.588 242.526,166.941 242.583 C 167.294 242.641,167.943 242.758,168.383 242.844 C 169.476 243.057,173.441 243.041,174.529 242.819 C 175.017 242.719,175.882 242.532,176.451 242.402 C 178.252 241.992,178.108 241.807,178.234 244.708 C 178.295 246.106,178.431 248.300,178.536 249.583 C 179.220 257.952,178.307 260.932,174.221 263.665 C 171.689 265.358,171.155 266.196,171.916 267.282 C 172.559 268.200,177.140 268.496,179.583 267.778 C 183.742 266.557,186.015 264.673,187.266 261.412 L 187.712 260.250 187.767 248.583 C 187.826 235.987,187.827 235.977,188.732 234.432 C 189.363 233.356,190.952 232.167,191.759 232.167 C 192.154 232.167,192.020 260.850,191.616 262.833 C 191.087 265.430,190.532 266.707,188.442 270.131 C 187.688 271.365,187.744 271.519,189.059 271.813 C 191.018 272.252,194.834 271.162,197.036 269.535 C 198.803 268.229,200.199 266.094,201.156 263.229 C 202.182 260.160,202.167 260.432,202.167 244.958 L 202.167 230.833 204.750 230.833 L 207.333 230.833 207.343 244.375 C 207.348 251.823,207.404 258.210,207.468 258.568 C 207.531 258.926,207.562 252.851,207.536 245.068 C 207.510 237.285,207.456 230.823,207.416 230.708 C 207.344 230.500,202.698 230.413,202.208 230.610 " stroke="none" fill="#5a5a5a" fill-rule="evenodd"></path></g></svg>