<?xml version="1.0" encoding="UTF-8" standalone="no"?>
<!-- Created with Inkscape (http://www.inkscape.org/) -->

<svg
   xmlns:dc="http://purl.org/dc/elements/1.1/"
   xmlns:cc="http://creativecommons.org/ns#"
   xmlns:rdf="http://www.w3.org/1999/02/22-rdf-syntax-ns#"
   xmlns:svg="http://www.w3.org/2000/svg"
   xmlns="http://www.w3.org/2000/svg"
   xmlns:sodipodi="http://sodipodi.sourceforge.net/DTD/sodipodi-0.dtd"
   xmlns:inkscape="http://www.inkscape.org/namespaces/inkscape"
   width="65mm"
   height="65mm"
   viewBox="0 0 65 65"
   version="1.1"
   id="svg8"
   inkscape:version="0.92.4 5da689c313, 2019-01-14"
   sodipodi:docname="schoberOrakel.svg">
  <defs
     id="defs2" />
  <sodipodi:namedview
     id="base"
     pagecolor="#ffffff"
     bordercolor="#666666"
     borderopacity="1.0"
     inkscape:pageopacity="0.0"
     inkscape:pageshadow="2"
     inkscape:zoom="1.28"
     inkscape:cx="96.148505"
     inkscape:cy="133.51962"
     inkscape:document-units="mm"
     inkscape:current-layer="layer1"
     showgrid="false"
     inkscape:window-width="1920"
     inkscape:window-height="1028"
     inkscape:window-x="1920"
     inkscape:window-y="0"
     inkscape:window-maximized="1"
     inkscape:snap-global="false"
     fit-margin-top="0"
     fit-margin-left="0"
     fit-margin-right="0"
     fit-margin-bottom="0" />
  <metadata
     id="metadata5">
    <rdf:RDF>
      <cc:Work
         rdf:about="">
        <dc:format>image/svg+xml</dc:format>
        <dc:type
           rdf:resource="http://purl.org/dc/dcmitype/StillImage" />
        <dc:title></dc:title>
      </cc:Work>
    </rdf:RDF>
  </metadata>
  <g
     inkscape:label="Ebene 1"
     inkscape:groupmode="layer"
     id="layer1"
     style="display:inline"
     transform="translate(-71.106684,-44.901816)">
    <path
       style="fill:#02b4f4;fill-opacity:1;stroke:none;stroke-width:0.26499999;stroke-miterlimit:4;stroke-dasharray:none;stroke-opacity:1"
       d="m 75.042962,77.374604 a 29.104166,29.104166 0 0 0 -0.02635,0.529166 29.104166,29.104166 0 0 0 29.104168,29.10417 29.104166,29.104166 0 0 0 29.10416,-29.10417 29.104166,29.104166 0 0 0 -29.10416,-29.104166 29.104166,29.104166 0 0 0 -0.74725,0.02635 27.828494,27.828494 0 0 1 2.24948,0.112654 27.828494,27.828494 0 0 1 2.75074,0.41548 27.828494,27.828494 0 0 1 2.69492,0.68833 27.828494,27.828494 0 0 1 2.61328,0.953947 27.828494,27.828494 0 0 1 2.50476,1.209744 27.828494,27.828494 0 0 1 2.37143,1.454176 27.828494,27.828494 0 0 1 2.21433,1.683618 27.828494,27.828494 0 0 1 2.03554,1.896007 27.828494,27.828494 0 0 1 1.83554,2.089795 27.828494,27.828494 0 0 1 1.61851,2.262394 27.828494,27.828494 0 0 1 1.3839,2.413291 27.828494,27.828494 0 0 1 1.13636,2.538863 27.828494,27.828494 0 0 1 0.87695,2.639631 27.828494,27.828494 0 0 1 0.60927,2.714046 27.828494,27.828494 0 0 1 0.33537,2.761588 27.828494,27.828494 0 0 1 0.0698,1.968357 27.828494,27.828494 0 0 1 -0.13901,2.778641 27.828494,27.828494 0 0 1 -0.416,2.750219 27.828494,27.828494 0 0 1 -0.68833,2.695443 27.828494,27.828494 0 0 1 -0.95343,2.61276 27.828494,27.828494 0 0 1 -1.21026,2.504758 27.828494,27.828494 0 0 1 -1.45366,2.371431 27.828494,27.828494 0 0 1 -1.68362,2.214335 27.828494,27.828494 0 0 1 -1.896,2.035535 27.828494,27.828494 0 0 1 -2.0898,1.836063 27.828494,27.828494 0 0 1 -2.26291,1.61799 27.828494,27.828494 0 0 1 -2.41277,1.3839 27.828494,27.828494 0 0 1 -2.53887,1.13637 27.828494,27.828494 0 0 1 -2.64015,0.87694 27.828494,27.828494 0 0 1 -2.71404,0.60927 27.828494,27.828494 0 0 1 -2.76159,0.33538 27.828494,27.828494 0 0 1 -1.96835,0.0698 27.828494,27.828494 0 0 1 -2.77813,-0.13901 27.828494,27.828494 0 0 1 -2.750216,-0.41599 27.828494,27.828494 0 0 1 -2.695442,-0.68781 27.828494,27.828494 0 0 1 -2.613279,-0.95395 27.828494,27.828494 0 0 1 -2.504755,-1.21026 A 27.828494,27.828494 0 0 1 87.131667,99.596021 27.828494,27.828494 0 0 1 84.917332,97.912403 27.828494,27.828494 0 0 1 82.881797,96.016394 27.828494,27.828494 0 0 1 81.04625,93.926601 27.828494,27.828494 0 0 1 79.428259,91.663688 27.828494,27.828494 0 0 1 78.043848,89.250916 27.828494,27.828494 0 0 1 76.908,86.712054 27.828494,27.828494 0 0 1 76.030536,84.072422 27.828494,27.828494 0 0 1 75.421269,81.357858 27.828494,27.828494 0 0 1 75.086407,78.596786 27.828494,27.828494 0 0 1 75.042997,77.374638 Z"
       id="path4882"
       inkscape:connector-curvature="0" />
    <path
       style="fill:#2ec6fd;fill-opacity:1;stroke:none;stroke-width:0.26499999;stroke-miterlimit:4;stroke-dasharray:none;stroke-opacity:1"
       d="m 75.042962,77.374604 a 27.828494,27.828494 0 0 0 0.04341,1.222147 27.828494,27.828494 0 0 0 0.334862,2.761073 27.828494,27.828494 0 0 0 0.609266,2.714564 27.828494,27.828494 0 0 0 0.877464,2.639631 27.828494,27.828494 0 0 0 1.135849,2.538863 27.828494,27.828494 0 0 0 1.384411,2.412772 27.828494,27.828494 0 0 0 1.61799,2.262912 27.828494,27.828494 0 0 0 1.835547,2.089793 27.828494,27.828494 0 0 0 2.035535,1.89601 27.828494,27.828494 0 0 0 2.214335,1.683618 27.828494,27.828494 0 0 0 2.371431,1.453663 27.828494,27.828494 0 0 0 2.504755,1.21026 27.828494,27.828494 0 0 0 2.613279,0.95395 27.828494,27.828494 0 0 0 2.695443,0.68781 27.828494,27.828494 0 0 0 2.750221,0.416 27.828494,27.828494 0 0 0 2.77812,0.13901 27.828494,27.828494 0 0 0 1.96836,-0.0698 27.828494,27.828494 0 0 0 2.76159,-0.33538 27.828494,27.828494 0 0 0 2.71404,-0.60926 27.828494,27.828494 0 0 0 2.64015,-0.87695 27.828494,27.828494 0 0 0 2.53886,-1.13636 27.828494,27.828494 0 0 0 2.41278,-1.3839 27.828494,27.828494 0 0 0 2.26291,-1.617995 27.828494,27.828494 0 0 0 2.08979,-1.836062 27.828494,27.828494 0 0 0 1.89601,-2.035535 27.828494,27.828494 0 0 0 1.68362,-2.214335 27.828494,27.828494 0 0 0 1.45366,-2.371431 27.828494,27.828494 0 0 0 1.21026,-2.504758 27.828494,27.828494 0 0 0 0.95343,-2.61276 27.828494,27.828494 0 0 0 0.68833,-2.695443 27.828494,27.828494 0 0 0 0.416,-2.750219 27.828494,27.828494 0 0 0 0.13901,-2.778641 27.828494,27.828494 0 0 0 -0.0698,-1.968357 27.828494,27.828494 0 0 0 -0.33538,-2.761589 27.828494,27.828494 0 0 0 -0.60926,-2.714045 27.828494,27.828494 0 0 0 -0.87695,-2.639632 27.828494,27.828494 0 0 0 -1.13637,-2.538862 27.828494,27.828494 0 0 0 -1.38389,-2.413291 27.828494,27.828494 0 0 0 -1.61851,-2.262394 27.828494,27.828494 0 0 0 -1.83555,-2.089795 27.828494,27.828494 0 0 0 -2.03553,-1.896007 27.828494,27.828494 0 0 0 -2.21433,-1.683618 27.828494,27.828494 0 0 0 -2.37144,-1.454177 27.828494,27.828494 0 0 0 -2.50475,-1.209743 27.828494,27.828494 0 0 0 -2.61328,-0.953948 27.828494,27.828494 0 0 0 -2.69493,-0.688329 27.828494,27.828494 0 0 0 -2.75073,-0.41548 27.828494,27.828494 0 0 0 -2.24948,-0.112655 29.104166,29.104166 0 0 0 -28.330569,28.548645 z"
       id="path4802"
       inkscape:connector-curvature="0" />
    <circle
       r="0"
       cy="80.797615"
       cx="102.05357"
       id="ellipse4821"
       style="fill:#02b4f4;fill-opacity:1;stroke:#f5deb3;stroke-width:0.26499999;stroke-miterlimit:4;stroke-dasharray:none;stroke-opacity:1" />
  </g>
  <g
     inkscape:groupmode="layer"
     id="layer3"
     inkscape:label="Ebene 3"
     style="display:inline"
     transform="translate(-71.106684,-44.901816)">
    <path
       style="fill:#ffceab;fill-opacity:1;stroke:none;stroke-width:0.1937305px;stroke-linecap:butt;stroke-linejoin:miter;stroke-opacity:1"
       d="m 112.7224,79.00203 c -0.58471,-1.477185 -1.05624,-3.173865 -1.31537,-3.852571 -0.25912,-0.678704 -0.73755,-1.823203 -1.20943,-2.814692 -0.47186,-0.991487 -2.32641,-4.192352 -2.36605,-4.757853 -0.0396,-0.565502 -1.94615,-6.400877 -0.29586,-7.238317 1.65028,-0.837445 4.40389,0.454522 5.48712,2.830074 1.08324,2.375552 2.79709,7.652003 3.77508,7.579299 0.97798,-0.07271 3.0475,-1.142791 3.77346,-2.798967 0.72594,-1.656183 1.71628,-4.718707 1.89665,-6.228789 0.18035,-1.510085 -0.28973,-4.10599 -0.55526,-5.290305 -0.26555,-1.184318 -1.23843,-3.22664 0.0456,-3.572878 1.08996,-0.293905 9.73579,11.003058 10.62265,14.813787 0.8133,3.494819 1.28869,14.369741 1.46128,15.174809 0,0 -6.87242,0.07078 -16.70381,4.041458 0,0 -4.13249,-6.671464 -4.61606,-7.885055 z"
       id="path4930"
       inkscape:connector-curvature="0"
       sodipodi:nodetypes="ccccccccccccccc" />
    <path
       sodipodi:nodetypes="ccccccccccccccc"
       inkscape:connector-curvature="0"
       id="path16"
       d="m 112.34505,77.317509 c -0.54705,-1.38203 -0.98821,-2.969417 -1.23064,-3.604403 -0.24243,-0.634985 -0.69004,-1.70576 -1.13153,-2.633381 -0.44146,-0.927619 -2.17655,-3.922297 -2.21363,-4.451371 -0.0371,-0.529074 -1.82079,-5.988557 -0.27681,-6.772053 1.54398,-0.7835 4.12021,0.425244 5.13366,2.647772 1.01347,2.222528 2.61692,7.159091 3.53191,7.09107 0.91498,-0.06803 2.85119,-1.069177 3.53039,-2.618668 0.67918,-1.549498 1.60572,-4.414747 1.77447,-5.827555 0.16874,-1.412811 -0.27106,-3.841498 -0.51949,-4.949524 -0.24844,-1.108029 -1.15866,-3.018793 0.0427,-3.342728 1.01975,-0.274972 9.10865,10.294285 9.93838,13.859541 0.76091,3.269697 1.20568,13.444099 1.36715,14.197308 0,0 -6.42972,0.06622 -15.62781,3.781123 0,0 -3.86629,-6.241715 -4.31871,-7.377131 z"
       style="fill:#ffd8bc;fill-opacity:1;stroke:none;stroke-width:0.18125114px;stroke-linecap:butt;stroke-linejoin:miter;stroke-opacity:1" />
    <path
       sodipodi:nodetypes="ccccccccccccccc"
       inkscape:connector-curvature="0"
       id="path823"
       d="m 94.493611,79.440519 c 0.58471,-1.477185 1.05624,-3.173865 1.31537,-3.852571 0.25912,-0.678704 0.73755,-1.823203 1.20943,-2.814692 0.47186,-0.991487 2.32641,-4.192352 2.36605,-4.757853 0.0396,-0.565502 1.946149,-6.400877 0.29586,-7.238317 -1.65028,-0.837445 -4.40389,0.454522 -5.48712,2.830074 -1.08324,2.375552 -2.79709,7.652003 -3.77508,7.579299 -0.97798,-0.07271 -3.0475,-1.142791 -3.77346,-2.798967 -0.72594,-1.656183 -1.71628,-4.718707 -1.89665,-6.228789 -0.18035,-1.510085 0.28973,-4.10599 0.55526,-5.290305 0.26555,-1.184318 1.23843,-3.22664 -0.0456,-3.572878 -1.08996,-0.293905 -9.73579,11.003058 -10.62265,14.813787 -0.8133,3.494819 -1.28869,14.369741 -1.46128,15.174809 0,0 6.87242,0.07078 16.70381,4.041458 0,0 4.13249,-6.671464 4.61606,-7.885055 z"
       style="fill:#ffceab;fill-opacity:1;stroke:none;stroke-width:0.1937305px;stroke-linecap:butt;stroke-linejoin:miter;stroke-opacity:1" />
    <path
       style="fill:#ffd8bc;fill-opacity:1;stroke:none;stroke-width:0.18125114px;stroke-linecap:butt;stroke-linejoin:miter;stroke-opacity:1"
       d="m 94.870961,77.755998 c 0.54705,-1.38203 0.98821,-2.969417 1.23064,-3.604403 0.24243,-0.634985 0.69004,-1.70576 1.13153,-2.633381 0.44146,-0.927619 2.17655,-3.922297 2.21363,-4.451371 0.0371,-0.529074 1.820789,-5.988557 0.27681,-6.772053 -1.54398,-0.7835 -4.12021,0.425244 -5.13366,2.647772 -1.01347,2.222528 -2.61692,7.159091 -3.53191,7.09107 -0.91498,-0.06803 -2.85119,-1.069177 -3.53039,-2.618668 -0.67918,-1.549498 -1.60572,-4.414747 -1.77447,-5.827555 -0.16874,-1.412811 0.27106,-3.841498 0.51949,-4.949524 0.24844,-1.108029 1.15866,-3.018793 -0.0427,-3.342728 -1.01975,-0.274972 -9.10865,10.294285 -9.93838,13.859541 -0.76091,3.269697 -1.20568,13.444099 -1.36715,14.197308 0,0 6.42972,0.06622 15.62781,3.781123 0,0 3.86629,-6.241715 4.31871,-7.377131 z"
       id="path825"
       inkscape:connector-curvature="0"
       sodipodi:nodetypes="ccccccccccccccc" />
  </g>
</svg>
