<?xml version="1.0" encoding="UTF-8" standalone="no"?>
<!-- Created with Inkscape (http://www.inkscape.org/) -->

<svg
   xmlns:osb="http://www.openswatchbook.org/uri/2009/osb"
   xmlns:dc="http://purl.org/dc/elements/1.1/"
   xmlns:cc="http://creativecommons.org/ns#"
   xmlns:rdf="http://www.w3.org/1999/02/22-rdf-syntax-ns#"
   xmlns:svg="http://www.w3.org/2000/svg"
   xmlns="http://www.w3.org/2000/svg"
   xmlns:xlink="http://www.w3.org/1999/xlink"
   xmlns:sodipodi="http://sodipodi.sourceforge.net/DTD/sodipodi-0.dtd"
   xmlns:inkscape="http://www.inkscape.org/namespaces/inkscape"
   inkscape:export-ydpi="130.048"
   inkscape:export-xdpi="130.048"
   inkscape:export-filename="/home/stefan/Bild.png"
   sodipodi:docname="IconButNotSoGood.svg"
   inkscape:version="0.92.4 5da689c313, 2019-01-14"
   id="svg8"
   version="1.1"
   viewBox="0 0 400 400"
   height="400mm"
   width="400mm">
  <defs
     id="defs2">
    <linearGradient
       inkscape:collect="always"
       id="linearGradient30646">
      <stop
         style="stop-color:#000000;stop-opacity:1"
         offset="0"
         id="stop30642" />
      <stop
         style="stop-color:#edf5fd;stop-opacity:0"
         offset="1"
         id="stop30644" />
    </linearGradient>
    <linearGradient
       id="linearGradient7921"
       osb:paint="solid">
      <stop
         style="stop-color:#0000a3;stop-opacity:1;"
         offset="0"
         id="stop7919" />
    </linearGradient>
    <inkscape:perspective
       sodipodi:type="inkscape:persp3d"
       inkscape:vp_x="0 : 134.99999 : 1"
       inkscape:vp_y="0 : 999.99996 : 0"
       inkscape:vp_z="190.90909 : 134.99999 : 1"
       inkscape:persp3d-origin="105 : 98.999996 : 1"
       id="perspective3717" />
    <linearGradient
       inkscape:collect="always"
       xlink:href="#linearGradient30646"
       id="linearGradient30680"
       gradientUnits="userSpaceOnUse"
       x1="324.61719"
       y1="381.32812"
       x2="786.6806"
       y2="843.39154"
       gradientTransform="matrix(0.26458333,0,0,0.26458333,106.59192,-2.8787576)" />
  </defs>
  <sodipodi:namedview
     id="base"
     pagecolor="#ffffff"
     bordercolor="#666666"
     borderopacity="1.0"
     inkscape:pageopacity="0.0"
     inkscape:pageshadow="2"
     inkscape:zoom="0.5"
     inkscape:cx="409.52449"
     inkscape:cy="701.75707"
     inkscape:document-units="mm"
     inkscape:current-layer="layer1"
     showgrid="false"
     inkscape:window-width="1920"
     inkscape:window-height="1027"
     inkscape:window-x="3840"
     inkscape:window-y="0"
     inkscape:window-maximized="1"
     inkscape:snap-bbox="true"
     inkscape:snap-to-guides="false"
     inkscape:snap-bbox-midpoints="true"
     inkscape:snap-bbox-edge-midpoints="true"
     inkscape:snap-midpoints="true"
     inkscape:snap-others="true"
     inkscape:snap-object-midpoints="true"
     inkscape:snap-page="false"
     inkscape:snap-grids="false"
     inkscape:snap-text-baseline="true"
     inkscape:snap-center="true"
     inkscape:snap-smooth-nodes="true"
     inkscape:snap-intersection-paths="true"
     inkscape:object-paths="true"
     inkscape:bbox-nodes="true"
     inkscape:bbox-paths="true"
     inkscape:snap-global="true"
     inkscape:snap-nodes="true"
     scale-x="2"
     inkscape:pagecheckerboard="false"
     borderlayer="false" />
  <metadata
     id="metadata5">
    <rdf:RDF>
      <cc:Work
         rdf:about="">
        <dc:format>image/svg+xml</dc:format>
        <dc:type
           rdf:resource="http://purl.org/dc/dcmitype/StillImage" />
        <dc:title></dc:title>
      </cc:Work>
    </rdf:RDF>
  </metadata>
  <g
     inkscape:label="Layer 1"
     inkscape:groupmode="layer"
     id="layer1"
     style="display:inline"
     transform="translate(0,103)">
    <path
       style="opacity:1;fill:url(#linearGradient30680);fill-opacity:1;stroke:none;stroke-width:0;stroke-linecap:butt;stroke-linejoin:miter;stroke-miterlimit:4;stroke-dasharray:none;stroke-opacity:1"
       d="M 172.50418,33.031195 V 148.36679 l 0.29042,-0.24753 v 0.53795 l 0.28991,-0.24753 v 0.53743 l 0.2899,-0.24753 v 0.53692 l 0.28939,-0.24701 v 0.53691 l 0.28939,-0.24701 v 0.53589 l 0.28887,-0.2465 v 0.53537 l 0.28835,-0.24598 v 0.53485 l 0.28835,-0.24598 v 0.53382 l 0.28784,-0.24547 v 0.53382 l 0.28784,-0.24546 v 0.53278 l 0.28732,-0.24495 v 0.53279 l 0.28732,-0.24495 v 0.53175 l 0.28681,-0.24494 v 0.53175 l 0.28629,-0.24443 v 0.53123 l 0.28628,-0.24443 v 0.53072 l 0.28577,-0.24391 v 0.52968 L 177.4,152.73293 v 0.52968 l 0.28526,-0.2434 v 0.52865 l 0.28525,-0.24339 v 0.52865 l 0.28474,-0.24288 v 0.52762 l 0.28474,-0.24288 v 0.5271 l 0.28422,-0.24237 v 0.52659 l 0.2837,-0.24185 v 0.52607 l 0.2837,-0.24185 v 0.52555 l 0.28319,-0.24184 v 0.52503 l 0.28319,-0.24185 v 0.52503 l 0.28267,-0.24133 v 0.524 l 0.28267,-0.24133 v 0.524 l 0.28215,-0.24081 v 0.52297 l 0.28164,-0.2403 v 0.52193 l 0.28163,-0.24029 v 0.52193 l 0.28164,-0.2403 v 0.52142 l 0.28112,-0.23978 v 0.5209 l 0.2806,-0.23926 v 0.51986 l 0.28061,-0.23926 v 0.51987 l 0.28008,-0.23875 v 0.51883 l 0.27957,-0.23874 v 0.51883 l 0.27957,-0.23875 v 0.51832 l 0.27957,-0.23875 v 0.5178 l 0.27905,-0.23823 v 0.51728 l 0.27854,-0.23771 v 0.51625 l 0.27853,-0.23771 v 0.51625 l 0.27802,-0.2372 v 0.51521 l 0.27751,-0.23667 v 0.51469 l 0.2775,-0.23667 v 0.51418 l 0.2775,-0.23668 v 0.51418 l 0.27699,-0.23616 v 0.51263 l 0.27647,-0.23565 v 0.51263 l 0.27647,-0.23564 v 0.51211 l 0.27595,-0.23564 v 0.5116 l 0.27595,-0.23565 v 0.5116 l 0.27544,-0.23513 v 0.51056 l 0.27543,-0.23513 v 0.51005 l 0.27492,-0.23461 v 0.50953 l 0.2744,-0.23409 v 0.50901 l 0.2744,-0.2341 v 0.5085 l 0.27389,-0.23358 v 0.50746 l 0.27388,-0.23357 v 0.50746 l 0.27337,-0.23306 v 0.50643 l 0.27337,-0.23306 v 0.50643 l 0.27285,-0.23255 v 0.5054 l 0.27285,-0.23255 v 0.50488 l 0.27182,-0.23202 v 0.50436 l 0.27234,-0.23255 v 0.50436 l 0.27181,-0.23202 v 0.50384 l 0.2713,-0.23151 v 0.50333 l 0.27131,-0.23151 v 0.5023 l 0.27078,-0.231 v 0.50178 l 0.27027,-0.23048 v 0.50126 l 0.27027,-0.23047 v 0.50074 l 0.27026,-0.23047 v 0.50022 l 0.26975,-0.22996 v 0.49971 l 0.26924,-0.22944 v 0.4992 l 0.26923,-0.22945 v 0.49816 l 0.26872,-0.22944 v 0.49868 l 0.26872,-0.22945 v 0.49765 l 0.2682,-0.22893 v 0.49713 l 0.26768,-0.22841 v 0.49661 l 0.26769,-0.22841 v 0.49609 l 0.26768,-0.22841 v 0.49558 l 0.26665,-0.22738 v 0.49455 l 0.26717,-0.2279 v 0.49455 l 0.26613,-0.22686 v 0.49351 l 0.26613,-0.22686 v 0.49299 l 0.26614,-0.22686 v 0.493 l 0.26562,-0.22686 v 0.49247 l 0.26561,-0.22686 v 0.49196 l 0.26459,-0.22582 v 0.49092 l 0.2651,-0.22634 v 0.49093 l 0.26458,-0.22583 v 0.49041 l 0.26407,-0.22531 v 0.48938 l 0.26355,-0.2248 v 0.48886 l 0.26354,-0.22479 v 0.48834 l 0.26356,-0.22479 v 0.48834 l 0.26303,-0.22427 v 0.48731 l 0.26252,-0.22376 v 0.48627 l 0.26251,-0.22376 v 0.48628 l 0.262,-0.22376 v 0.48576 l 0.262,-0.22376 v 0.48576 l 0.26148,-0.22325 v 0.48473 l 0.26148,-0.22324 v 0.48472 l 0.26097,-0.22272 v 0.48369 l 0.26045,-0.22221 v 0.48266 l 0.26045,-0.22221 v 0.48266 l 0.26045,-0.22221 v 0.48214 l 0.25942,-0.22118 v 0.48111 l 0.25993,-0.22169 v 0.48111 l 0.2589,-0.22066 v 0.48007 l 0.2589,-0.22066 v 0.47956 l 0.2589,-0.22066 v 0.47904 l 0.25838,-0.22065 v 0.47904 l 0.25786,-0.22015 v 0.47853 l 0.25787,-0.22014 v 0.478 l 0.25734,-0.21962 v 0.47697 l 0.25735,-0.21962 v 0.47697 l 0.25684,-0.21911 v 0.47594 l 0.25683,-0.2191 v 0.47542 l 0.25631,-0.21859 v 0.4749 l 0.2558,-0.21807 v 0.47439 l 0.2558,-0.21808 v 0.47388 l 0.2558,-0.21808 v 0.47336 l 0.25476,-0.21756 v 0.47284 l 0.25528,-0.21756 v 0.47233 l 0.25425,-0.21705 v 0.47181 l 0.25425,-0.21704 v 0.47129 l 0.25425,-0.21704 v 0.47077 l 0.25373,-0.21653 v 0.47026 l 0.25321,-0.21601 v 0.46974 l 0.25322,-0.21601 v 0.46923 l 0.2527,-0.21549 v 0.46818 l 0.2527,-0.21549 v 0.46819 l 0.25218,-0.21497 v 0.46715 l 0.25218,-0.21497 v 0.46715 l 0.25166,-0.21445 v 0.46612 l 0.25115,-0.21446 v 0.46561 l 0.25114,-0.21446 v 0.4656 l 0.25115,-0.21445 v 0.46508 l 0.25012,-0.21342 v 0.46405 l 0.25063,-0.21394 v 0.46406 l 0.24959,-0.21291 v 0.46302 l 0.2496,-0.21291 v 0.46251 l 0.2496,-0.21291 v 0.46251 l 0.24908,-0.21239 v 0.46147 l 0.24856,-0.21188 v 0.46044 l 0.24857,-0.21187 v 0.46043 l 0.24856,-0.21187 v 0.45992 l 0.24753,-0.21135 v 0.4594 l 0.24753,-0.21136 v 0.45889 l 0.24753,-0.21136 v 0.45889 l 0.24701,-0.21084 v 0.45785 l 0.24702,-0.21084 v 0.45734 l 0.24649,-0.21033 v 0.45682 l 0.24598,-0.2098 v 0.45578 l 0.24598,-0.2098 v 0.45578 l 0.24547,-0.20929 v 0.45528 l 0.24546,-0.2093 v 0.45424 l 0.24495,-0.20877 v 0.45372 l 0.24443,-0.20878 v 0.45372 l 0.24443,-0.20877 v 0.4532 l 0.24442,-0.20877 v 0.45268 l 0.24392,-0.20825 v 0.45217 l 0.24339,-0.20774 v 0.45113 l 0.2434,-0.20774 v 0.45114 l 0.24288,-0.20722 v 0.4501 l 0.24236,-0.20671 v 0.44959 l 0.24236,-0.20671 v 0.44907 l 0.24237,-0.20671 v 0.44856 l 0.24184,-0.20619 v 0.44803 l 0.24133,-0.20567 v 0.44752 l 0.24133,-0.20567 v 0.447 l 0.24081,-0.20567 v 0.44648 l 0.24081,-0.20567 v 0.44596 l 0.2403,-0.20515 v 0.44597 l 0.2403,-0.20516 v 0.44494 l 0.23977,-0.20464 v 0.44441 l 0.23926,-0.20412 v 0.4439 l 0.23927,-0.20412 v 0.44287 l 0.23874,-0.20361 v 0.44287 l 0.23875,-0.2036 v 0.44234 l 0.23823,-0.20308 v 0.44131 l 0.23822,-0.20309 v 0.4408 l 0.23772,-0.20257 v 0.44029 l 0.23719,-0.20258 v 0.44029 l 0.2372,-0.20257 v 0.43976 l 0.23719,-0.20257 v 0.43925 l 0.23616,-0.20154 v 0.43822 l 0.23668,-0.20206 v 0.43822 l 0.23565,-0.20102 v 0.43718 l 0.23564,-0.20102 v 0.43667 l 0.23564,-0.20102 v 0.43666 l 0.23513,-0.20051 v 0.43564 l 0.23461,-0.19999 v 0.4346 l 0.23461,-0.19999 v 0.4346 l 0.23461,-0.19999 v 0.43408 l 0.23358,-0.19947 v 0.43357 l 0.23409,-0.19947 v 0.43305 l 0.23307,-0.19896 v 0.43253 l 0.23306,-0.19895 v 0.43201 l 0.23306,-0.19895 v 0.4315 l 0.23254,-0.19844 v 0.43098 l 0.23203,-0.19792 v 0.43047 l 0.23203,-0.19793 v 0.42995 l 0.23151,-0.1974 v 0.42891 l 0.23151,-0.1974 v 0.4284 l 0.23099,-0.19689 v 0.4284 l 0.23099,-0.19689 v 0.42736 l 0.23048,-0.19688 v 0.42736 l 0.22996,-0.19637 v 0.42685 l 0.22996,-0.19637 v 0.42581 l 0.22944,-0.19585 v 0.42581 l 0.22945,-0.19585 v 0.4253 l 0.22892,-0.19534 v 0.42426 l 0.22893,-0.19534 v 0.42375 l 0.22841,-0.19482 v 0.42323 l 0.22789,-0.1943 v 0.42271 l 0.2279,-0.1943 v 0.42219 l 0.22789,-0.1943 v 0.42168 l 0.22738,-0.19379 v 0.42117 l 0.22686,-0.19379 v 0.42065 l 0.22686,-0.19379 v 0.42065 l 0.22634,-0.19327 v 0.41961 l 0.22582,-0.19275 v 0.41909 l 0.22583,-0.19275 v 0.41858 l 0.22583,-0.19275 v 0.41806 l 0.22531,-0.19224 v 0.41755 l 0.22479,-0.19172 v 0.41651 l 0.22479,-0.19172 v 0.41651 l 0.22428,-0.1912 v 0.41548 l 0.22427,-0.19121 v 0.41548 l 0.22376,-0.19068 v 0.41444 l 0.22324,-0.19068 v 0.41444 l 0.22324,-0.19069 v 0.41393 l 0.22273,-0.19017 v 0.4129 l 0.22273,-0.19017 v 0.41289 l 0.22272,-0.19017 v 0.41238 l 0.22169,-0.18913 v 0.41134 l 0.22169,-0.18914 v 0.41083 l 0.2217,-0.18913 v 0.41083 l 0.22117,-0.18862 v 0.40979 l 0.22066,-0.1881 v 0.40876 l 0.22066,-0.1881 v 0.40876 l 0.22066,-0.18811 v 0.40825 l 0.21962,-0.18759 v 0.40773 l 0.22014,-0.18759 v 0.40721 l 0.21911,-0.18706 v 0.40669 l 0.21911,-0.18707 v 0.40618 l 0.21911,-0.18707 v 0.40617 l 0.21859,-0.18655 v 0.40463 l 0.21807,-0.18604 v 0.40463 l 0.21808,-0.18603 v 0.40411 l 0.21755,-0.18552 v 0.40307 l 0.21756,-0.18552 v 0.40308 l 0.21704,-0.185 v 0.40204 l 0.21705,-0.185 v 0.40153 l 0.21652,-0.18449 v 0.40101 l 0.21601,-0.18448 v 0.401 l 0.21601,-0.18448 v 0.40049 l 0.216,-0.18448 v 0.39997 l 0.21498,-0.18345 v 0.39894 l 0.21549,-0.18396 v 0.39894 l 0.21445,-0.18294 v 0.39791 l 0.21446,-0.18293 v 0.39739 l 0.21446,-0.18294 v 0.39688 l 0.21394,-0.18242 v 0.39636 l 0.21342,-0.1819 v 0.39584 l 0.21343,-0.1819 v 0.39532 l 0.2129,-0.18138 v 0.39429 l 0.21291,-0.18138 v 0.39429 l 0.21239,-0.18139 v 0.39378 l 0.21239,-0.18139 v 0.39326 l 0.21187,-0.18087 v 0.39274 l 0.21136,-0.18035 v 0.39223 l 0.21136,-0.18035 v 0.3917 l 0.21135,-0.18035 v 0.39119 l 0.21033,-0.17931 v 0.39015 l 0.21084,-0.17983 v 0.39016 l 0.2098,-0.1788 v 0.38912 l 0.20981,-0.1788 v 0.38861 l 0.2098,-0.1788 v 0.3886 l 0.2093,-0.1788 v 0.38758 l 0.20877,-0.17829 v 0.38757 l 0.20877,-0.17828 v 0.38706 l 0.20826,-0.17777 v 0.38603 l 0.20825,-0.17777 v 0.38602 l 0.20774,-0.17725 v 0.38499 l 0.20774,-0.17725 v 0.38499 l 0.20722,-0.17673 v 0.38395 l 0.20671,-0.17622 v 0.38293 l 0.20671,-0.17622 v 0.38292 l 0.2067,-0.17622 v 0.38241 l 0.20619,-0.1757 v 0.38189 l 0.20567,-0.1757 v 0.38137 l 0.20516,-0.17518 v 0.38085 l 0.20567,-0.17569 v 0.38085 l 0.20464,-0.17467 v 0.37982 l 0.20464,-0.17466 v 0.3793 l 0.20412,-0.17414 v 0.37826 l 0.20412,-0.17414 v 0.37827 l 0.20412,-0.17415 v 0.37775 l 0.20309,-0.17311 v 0.37672 l 0.20361,-0.17363 v 0.37672 l 0.20257,-0.1726 v 0.37569 l 0.20257,-0.17261 v 0.37518 l 0.20257,-0.1726 v 0.37465 l 0.20206,-0.1726 v 0.37466 l 0.20153,-0.17209 v 0.37414 l 0.20154,-0.17208 v 0.3731 l 0.20102,-0.17156 v 0.3731 l 0.20103,-0.17156 v 0.37207 l 0.2005,-0.17105 v 0.37155 l 0.19999,-0.17053 v 0.37103 l 0.19999,-0.17053 v 0.37052 l 0.19998,-0.17053 v 0.37 l 0.19947,-0.17001 v 0.36948 l 0.19896,-0.16949 v 0.36897 l 0.19895,-0.1695 v 0.36793 l 0.19844,-0.1695 v 0.36794 l 0.19792,-0.16898 v 0.36742 l 0.19844,-0.1695 v 0.36742 l 0.1974,-0.16847 v 0.36639 l 0.1974,-0.16847 v 0.36587 l 0.19689,-0.16795 v 0.36484 l 0.19689,-0.16795 v 0.36484 l 0.19637,-0.16744 v 0.36381 l 0.19637,-0.16743 v 0.3638 l 0.19586,-0.16692 v 0.36277 l 0.19585,-0.16691 v 0.36225 l 0.19534,-0.1664 v 0.36174 l 0.19482,-0.1664 v 0.36173 l 0.19482,-0.1664 v 0.36122 l 0.1943,-0.16588 v 0.36019 l 0.1943,-0.16589 v 0.36019 l 0.19379,-0.16536 v 0.35915 l 0.19379,-0.16537 v 0.35864 l 0.19327,-0.16485 v 0.35863 l 0.19275,-0.16433 v 0.35709 l 0.19275,-0.16434 v 0.35709 l 0.19276,-0.16433 v 0.35657 l 0.19223,-0.16382 v 0.35605 l 0.19172,-0.16381 v 0.35553 l 0.1912,-0.1633 v 0.35502 l 0.19172,-0.16381 v 0.35501 l 0.19069,-0.16278 v 0.35399 l 0.19069,-0.16279 v 0.35347 l 0.19068,-0.16278 v 0.35295 l 0.19017,-0.16226 v 0.35243 l 0.18965,-0.16175 v 0.3514 l 0.18966,-0.16174 v 0.3514 l 0.18913,-0.16123 v 0.35036 l 0.18862,-0.16071 v 0.34985 l 0.18862,-0.16072 v 0.34934 l 0.18862,-0.16072 v 0.34933 l 0.1881,-0.16071 v 0.34882 l 0.18758,-0.1602 v 0.34778 l 0.18759,-0.16019 v 0.34778 l 0.18707,-0.15968 v 0.34675 l 0.18707,-0.15968 v 0.34675 l 0.18655,-0.15917 v 0.34572 l 0.18655,-0.15917 v 0.3452 l 0.18604,-0.15864 v 0.34468 l 0.18551,-0.15813 v 0.34416 l 0.18553,-0.15813 v 0.34365 l 0.185,-0.15761 v 0.34261 l 0.185,-0.15761 v 0.34262 l 0.18448,-0.15762 v 0.3421 l 0.18449,-0.15761 v 0.3421 l 0.18397,-0.1571 v 0.34106 l 0.18396,-0.15709 v 0.34054 l 0.18345,-0.15658 v 0.34004 l 0.18294,-0.15607 v 0.33952 l 0.18293,-0.15607 v 0.33848 l 0.18242,-0.15554 v 0.33848 l 0.18242,-0.15555 v 0.33745 l 0.1819,-0.15503 v 0.33693 l 0.18139,-0.15451 v 0.33641 l 0.1819,-0.15503 v 0.33642 l 0.18086,-0.15452 v 0.3359 l 0.18087,-0.15451 v 0.33486 l 0.18035,-0.15399 v 0.33486 l 0.18035,-0.154 v 0.33435 l 0.17984,-0.15348 v 0.33331 l 0.17983,-0.15348 v 0.3328 l 0.17932,-0.15296 v 0.33228 l 0.1788,-0.15245 v 0.33177 l 0.1788,-0.15245 v 0.33125 l 0.1788,-0.15245 v 0.33073 l 0.17828,-0.15193 v 0.33021 l 0.17777,-0.15141 v 0.32918 l 0.17777,-0.15141 v 0.32918 l 0.17725,-0.15141 v 0.32866 l 0.17673,-0.1509 v 0.32815 l 0.17673,-0.1509 v 0.32763 l 0.17674,-0.1509 v 0.32712 l 0.17621,-0.15038 v 0.32659 l 0.1757,-0.14986 v 0.32608 l 0.1757,-0.14986 v 0.32504 l 0.17519,-0.14934 v 0.32504 l 0.17518,-0.14934 v 0.32401 l 0.17467,-0.14883 v 0.3235 l 0.17414,-0.14832 v 0.32298 l 0.17416,-0.14883 v 0.32298 l 0.17414,-0.14883 v 0.32247 l 0.17312,-0.1478 v 0.32143 l 0.17363,-0.14831 v 0.32142 l 0.1726,-0.14727 v 0.32039 l 0.17312,-0.14779 v 0.32039 l 0.17208,-0.14676 v 0.31936 l 0.17208,-0.14676 v 0.31884 l 0.17209,-0.14676 v 0.31833 l 0.17156,-0.14625 v 0.31781 l 0.17105,-0.14573 v 0.3173 l 0.17105,-0.14573 v 0.31626 l 0.17053,-0.14573 v 0.31678 l 0.17054,-0.14573 v 0.31575 l 0.17001,-0.14521 v 0.31522 l 0.1695,-0.14469 v 0.31471 l 0.1695,-0.1447 v 0.3142 l 0.1695,-0.1447 v 0.31368 l 0.16846,-0.14366 v 0.31264 l 0.16898,-0.14418 v 0.31264 l 0.16795,-0.14314 v 0.31161 l 0.16847,-0.14366 v 0.31161 l 0.16743,-0.14263 v 0.31058 l 0.16743,-0.14263 v 0.31006 l 0.16743,-0.14263 v 0.30954 l 0.16692,-0.14262 v 0.30954 l 0.1664,-0.14211 v 0.30902 l 0.16639,-0.14211 v 0.30799 l 0.16588,-0.14159 v 0.30799 l 0.16589,-0.14159 v 0.30696 l 0.16536,-0.14108 v 0.30644 l 0.16485,-0.14056 v 0.30593 l 0.16484,-0.14056 v 0.3054 l 0.16485,-0.14056 v 0.30489 l 0.16434,-0.14004 v 0.30437 l 0.16381,-0.13952 v 0.30334 l 0.16381,-0.13953 v 0.30334 l 0.1633,-0.13952 v 0.30282 l 0.16278,-0.13901 v 0.30231 l 0.16278,-0.13901 v 0.30179 l 0.16278,-0.13901 v 0.30127 l 0.16227,-0.13849 v 0.30076 l 0.16175,-0.13798 v 0.30024 l 0.16174,-0.13798 v 0.29973 l 0.16123,-0.13746 v 0.29869 l 0.16123,-0.13746 v 0.29817 l 0.16072,-0.13694 v 0.29817 l 0.16071,-0.13694 v 0.29714 l 0.1602,-0.13643 v 0.29663 l 0.15968,-0.13643 v 0.29662 l 0.15968,-0.13642 v 0.29559 l 0.15916,-0.13591 v 0.29559 l 0.15916,-0.13591 v 0.29455 l 0.15865,-0.13539 v 0.29456 l 0.15865,-0.1354 v 0.29353 l 0.15813,-0.13488 v 0.29301 l 0.15761,-0.13436 v 0.29249 l 0.15761,-0.13436 v 0.29197 l 0.1571,-0.13384 v 0.29094 l 0.15709,-0.13384 v 0.29093 l 0.15659,-0.13384 v 0.29042 l 0.15658,-0.13384 v 0.29042 l 0.15606,-0.13332 v 0.28938 l 0.15606,-0.13332 v 0.28887 l 0.15555,-0.13281 v 0.28836 l 0.15503,-0.1323 v 0.28784 l 0.15503,-0.13229 v 0.28732 l 0.15451,-0.13177 v 0.28629 l 0.15451,-0.13178 v 0.28629 l 0.154,-0.13126 v 0.28525 l 0.15399,-0.13125 v 0.28525 l 0.15348,-0.13074 v 0.28422 l 0.15296,-0.13074 v 0.2837 l 0.15297,-0.13074 v 0.2837 l 0.15296,-0.13074 v 0.28319 l 0.15244,-0.13023 v 0.28267 l 0.15193,-0.1297 v 0.28163 l 0.15193,-0.12971 v 0.28164 l 0.15141,-0.12919 v 0.2806 l 0.1509,-0.12867 v 0.28008 l 0.15089,-0.12867 v 0.27957 l 0.1509,-0.12867 v 0.27905 l 0.15038,-0.12816 v 0.27854 l 0.14986,-0.12764 v 0.2775 l 0.14986,-0.12764 v 0.2775 l 0.14934,-0.12764 v 0.27698 l 0.14883,-0.12712 v 0.27647 l 0.14883,-0.12712 v 0.27595 l 0.14883,-0.12712 v 0.27595 l 0.14831,-0.12661 v 0.27492 l 0.14779,-0.12609 v 0.27388 l 0.1478,-0.12609 v 0.27389 l 0.14728,-0.12558 v 0.27285 l 0.14728,-0.12557 v 0.27285 l 0.14676,-0.12506 v 0.27182 l 0.14676,-0.12505 v 0.2713 l 0.14624,-0.12454 v 0.27078 l 0.14573,-0.12454 v 0.27079 l 0.14573,-0.12454 v 0.27026 l 0.14521,-0.12402 v 0.26923 l 0.14521,-0.12402 v 0.26924 l 0.14469,-0.12351 v 0.2682 l 0.1447,-0.12351 v 0.2682 l 0.14417,-0.12299 v 0.26717 l 0.14418,-0.12299 v 0.26665 l 0.14366,-0.12247 v 0.26613 l 0.14315,-0.12195 v 0.26509 l 0.14314,-0.12195 v 0.2651 l 0.14262,-0.12144 v 0.26458 l 0.14263,-0.12144 v 0.26355 l 0.14211,-0.12144 v 0.26355 l 0.1416,-0.12092 v 0.26303 l 0.14159,-0.12092 v 0.26252 l 0.14159,-0.12093 v 0.262 l 0.14108,-0.1204 v 0.26148 l 0.14056,-0.11989 v 0.26097 l 0.14056,-0.11989 v 0.25993 l 0.14004,-0.11937 v 0.25993 l 0.14005,-0.11937 v 0.2589 l 0.13952,-0.11886 v 0.25838 l 0.13901,-0.11834 v 0.25787 l 0.13901,-0.11834 v 0.25735 l 0.13901,-0.11886 v 0.25735 l 0.13798,-0.11782 v 0.25631 l 0.13849,-0.11833 v 0.25631 l 0.13746,-0.1173 v 0.25528 l 0.13797,-0.11783 v 0.25529 l 0.13695,-0.11679 v 0.25424 l 0.13694,-0.11678 v 0.25373 l 0.13694,-0.11679 v 0.25321 l 0.13591,-0.11575 v 0.25218 l 0.13643,-0.11627 v 0.25219 l 0.13591,-0.11577 v 0.25166 l 0.13539,-0.11575 v 0.25114 l 0.13487,-0.11523 v 0.25064 l 0.1354,-0.11575 v 0.25061 l 0.13435,-0.11472 v 0.2496 l 0.13437,-0.11472 v 0.24908 l 0.13383,-0.11419 v 0.24804 l 0.13385,-0.11422 v 0.24805 l 0.13384,-0.1142 v 0.24752 l 0.13281,-0.11316 v 0.24649 l 0.13281,-0.11317 v 0.24599 l 0.1328,-0.11317 v 0.24596 l 0.1323,-0.11263 v 0.24492 l 0.13177,-0.11263 v 0.24442 l 0.13178,-0.11266 v 0.24442 l 0.13177,-0.11263 v 0.24389 l 0.13074,-0.1116 v 0.24286 l 0.13126,-0.11213 v 0.24289 l 0.13023,-0.11112 v 0.24185 l 0.13022,-0.1111 v 0.24133 l 0.13023,-0.1111 v 0.24133 l 0.1297,-0.1106 v 0.2403 l 0.1292,-0.11007 v 0.23926 l 0.12919,-0.11006 v 0.23926 l 0.12867,-0.10957 v 0.23823 l 0.12867,-0.10956 v 0.23823 l 0.12816,-0.10954 v 0.23771 l 0.12816,-0.10957 v 0.23773 l 0.12764,-0.10903 v 0.23667 l 0.12712,-0.10851 v 0.23564 l 0.12713,-0.10853 v 0.23563 l 0.12712,-0.1085 v 0.23513 l 0.12609,-0.1075 v 0.23411 l 0.12661,-0.10801 v 0.23408 l 0.12557,-0.10697 v 0.23307 l 0.12558,-0.10697 v 0.23254 l 0.12557,-0.10697 v 0.23254 l 0.12506,-0.10644 v 0.23151 l 0.12454,-0.10647 v 0.23101 l 0.12454,-0.10647 v 0.23101 l 0.12454,-0.10647 v 0.23048 l 0.1235,-0.10541 v 0.22945 l 0.12351,-0.10544 v 0.22894 l 0.12351,-0.10543 v 0.22894 l 0.12299,-0.10491 v 0.22789 l 0.12299,-0.10491 v 0.22739 l 0.12195,-0.10388 v 0.22635 l 0.12248,-0.10438 v 0.22633 l 0.12195,-0.10385 v 0.22582 l 0.12144,-0.10337 v 0.22481 l 0.12093,-0.10337 v 0.22479 l 0.12144,-0.10334 v 0.22428 l 0.1204,-0.10284 v 0.22376 l 0.12041,-0.10285 v 0.22326 l 0.1204,-0.10284 v 0.22272 l 0.11938,-0.10181 v 0.22169 l 0.11989,-0.10231 v 0.22169 l 0.11885,-0.10128 v 0.22066 l 0.11937,-0.10181 v 0.22067 l 0.11834,-0.10078 v 0.21963 l 0.11834,-0.10076 v 0.2191 l 0.11834,-0.10078 v 0.2186 l 0.11782,-0.10078 v 0.2186 l 0.11731,-0.10025 v 0.21807 l 0.11731,-0.10025 V 270.01 l 0.11678,-0.0997 v 0.21703 l 0.11679,-0.0997 v 0.216 l 0.11627,-0.0992 v 0.21551 l 0.11576,-0.0987 v 0.21498 l 0.11575,-0.0987 v 0.21444 l 0.11576,-0.0987 v 0.21394 l 0.11524,-0.0982 v 0.21341 l 0.11472,-0.0977 v 0.21238 l 0.11472,-0.0977 v 0.21239 l 0.11421,-0.0977 v 0.21188 l 0.11369,-0.0972 v 0.21135 l 0.11368,-0.0971 v 0.21084 l 0.11369,-0.0971 v 0.21084 l 0.11317,-0.0967 v 0.20982 l 0.11266,-0.0961 v 0.20879 l 0.11265,-0.0961 v 0.20878 l 0.11214,-0.0956 v 0.20773 l 0.11214,-0.0956 v 0.20773 l 0.11162,-0.0951 v 0.20669 l 0.11162,-0.0951 v 0.20619 l 0.11111,-0.0946 v 0.20569 l 0.11058,-0.0946 v 0.20569 l 0.11059,-0.0946 v 0.20513 l 0.11007,-0.094 v 0.20413 l 0.11007,-0.0941 v 0.20412 l 0.10956,-0.0935 v 0.20307 l 0.10955,-0.0935 v 0.20257 l 0.10904,-0.093 v 0.20206 l 0.10852,-0.0925 v 0.20156 l 0.10852,-0.0925 v 0.20101 l 0.10852,-0.0925 v 0.2005 l 0.108,-0.092 v 0.19997 l 0.10749,-0.0915 v 0.19896 l 0.10697,-0.0915 v 0.19894 l 0.10749,-0.0915 v 0.19844 l 0.10645,-0.0909 v 0.19791 l 0.10645,-0.0909 v 0.19741 l 0.10646,-0.091 v 0.19691 l 0.10542,-0.0899 v 0.19584 l 0.10593,-0.0904 v 0.19585 l 0.10542,-0.0899 v 0.19535 l 0.10491,-0.0894 v 0.19431 l 0.10438,-0.0889 v 0.19378 l 0.10439,-0.0889 v 0.19325 l 0.10438,-0.0889 v 0.19274 l 0.10387,-0.0884 v 0.19225 l 0.10336,-0.0884 v 0.19225 l 0.10335,-0.0884 v 0.19172 l 0.10284,-0.0879 v 0.19072 l 0.10283,-0.0879 v 0.19068 l 0.10232,-0.0873 v 0.18966 l 0.10232,-0.0873 v 0.18913 l 0.1018,-0.0868 v 0.18862 l 0.10129,-0.0863 v 0.1881 l 0.10128,-0.0863 v 0.18759 l 0.10077,-0.0858 v 0.18656 l 0.10077,-0.0858 v 0.18656 l 0.10026,-0.0858 v 0.18603 l 0.10025,-0.0858 v 0.18603 l 0.0997,-0.0853 v 0.185 l 0.0997,-0.0853 v 0.18447 l 0.0987,-0.0842 v 0.18344 l 0.0992,-0.0847 v 0.18346 l 0.0987,-0.0842 v 0.18293 l 0.0982,-0.0837 v 0.18243 l 0.0982,-0.0837 v 0.18137 l 0.0977,-0.0832 v 0.18087 l 0.0971,-0.0827 v 0.18034 l 0.0971,-0.0827 v 0.17983 l 0.0971,-0.0827 v 0.17931 l 0.0966,-0.0827 v 0.17933 l 0.0961,-0.0822 v 0.17881 l 0.0961,-0.0822 v 0.17777 l 0.0956,-0.0816 v 0.17778 l 0.0956,-0.0817 v 0.17675 l 0.0951,-0.0811 v 0.17624 l 0.0946,-0.0806 v 0.17568 l 0.0946,-0.0806 v 0.17518 l 0.0946,-0.0806 v 0.17465 l 0.0935,-0.0796 v 0.17364 l 0.094,-0.0801 v 0.17362 l 0.093,-0.0796 v 0.17311 l 0.0935,-0.0796 v 0.17261 l 0.0925,-0.0791 v 0.17208 l 0.0925,-0.0791 v 0.17156 l 0.0925,-0.0791 v 0.17106 l 0.092,-0.0786 v 0.17055 l 0.0915,-0.078 v 0.16952 l 0.0915,-0.0781 v 0.16951 l 0.091,-0.0775 v 0.16846 l 0.0904,-0.077 v 0.16796 l 0.091,-0.0775 v 0.16796 l 0.0899,-0.0765 v 0.16692 l 0.0899,-0.0765 v 0.1664 l 0.0894,-0.0765 v 0.16589 l 0.0894,-0.0765 v 0.1659 l 0.0894,-0.0765 v 0.16537 l 0.0884,-0.0754 v 0.16433 l 0.0884,-0.0755 v 0.1638 l 0.0884,-0.0754 v 0.1638 l 0.0879,-0.0749 v 0.1628 l 0.0878,-0.0749 v 0.16225 l 0.0868,-0.0739 v 0.16123 l 0.0873,-0.0744 v 0.16121 l 0.0868,-0.0739 v 0.16073 l 0.0863,-0.0734 v 0.15968 l 0.0858,-0.0734 v 0.15968 l 0.0863,-0.0734 v 0.15915 l 0.0853,-0.0729 v 0.15867 l 0.0853,-0.0729 v 0.15812 l 0.0848,-0.0723 v 0.15708 l 0.0847,-0.0723 v 0.15708 l 0.0848,-0.0723 v 0.15658 l 0.0837,-0.0713 v 0.15555 l 0.0837,-0.0713 v 0.15504 l 0.0837,-0.0713 v 0.15505 l 0.0832,-0.0708 v 0.15399 l 0.0832,-0.0708 v 0.15348 l 0.0822,-0.0703 v 0.15296 l 0.0827,-0.0708 v 0.15299 l 0.0822,-0.0703 v 0.15245 l 0.0816,-0.0698 v 0.15142 l 0.0811,-0.0692 v 0.15089 l 0.0816,-0.0698 v 0.15089 l 0.0806,-0.0687 v 0.14986 l 0.0806,-0.0687 v 0.14936 l 0.0801,-0.0682 v 0.1483 l 0.0801,-0.0682 v 0.1483 l 0.0801,-0.0682 v 0.14779 l 0.0791,-0.0677 v 0.14727 l 0.0796,-0.0677 v 0.14677 l 0.0785,-0.0672 v 0.14626 l 0.0785,-0.0672 v 0.14571 l 0.0786,-0.0672 v 0.14523 l 0.078,-0.0667 v 0.1447 l 0.0775,-0.0661 v 0.14417 l 0.0775,-0.0661 v 0.14314 l 0.077,-0.0656 v 0.14314 l 0.077,-0.0656 v 0.1421 l 0.0765,-0.0651 v 0.14157 l 0.076,-0.0646 v 0.14108 l 0.076,-0.0646 v 0.14058 l 0.076,-0.0646 v 0.14004 l 0.0754,-0.0646 v 0.14005 l 0.0749,-0.0641 v 0.13901 l 0.0749,-0.0641 v 0.13901 l 0.0744,-0.0636 v 0.13798 l 0.0739,-0.0631 v 0.13745 l 0.0739,-0.063 v 0.13695 l 0.0739,-0.0631 v 0.13642 l 0.0734,-0.0625 v 0.13592 l 0.0729,-0.062 v 0.13539 l 0.0729,-0.062 v 0.13485 l 0.0723,-0.0615 v 0.13385 l 0.0724,-0.0615 v 0.13333 l 0.0718,-0.0615 v 0.13385 l 0.0718,-0.0615 v 0.13279 l 0.0713,-0.061 v 0.13229 l 0.0708,-0.0605 v 0.13179 l 0.0708,-0.0605 v 0.13074 l 0.0703,-0.06 v 0.13076 l 0.0703,-0.06 v 0.1297 l 0.0698,-0.0594 v 0.12972 l 0.0698,-0.0594 v 0.12866 l 0.0693,-0.0589 v 0.12816 l 0.0687,-0.0584 v 0.12764 l 0.0687,-0.0584 v 0.12713 l 0.0687,-0.0584 v 0.1266 l 0.0677,-0.0579 v 0.12607 l 0.0682,-0.0584 v 0.1261 l 0.0672,-0.0574 v 0.12504 l 0.0672,-0.0574 v 0.12454 l 0.0672,-0.0574 v 0.12456 l 0.0667,-0.0569 v 0.12351 l 0.0661,-0.0563 v 0.12248 l 0.0661,-0.0563 v 0.12247 l 0.0661,-0.0563 v 0.12198 l 0.0651,-0.0553 v 0.12091 l 0.0651,-0.0553 v 0.12041 l 0.0651,-0.0553 v 0.12041 l 0.0646,-0.0553 v 0.11989 l 0.0646,-0.0553 v 0.11938 l 0.0641,-0.0548 v 0.11885 l 0.0636,-0.0543 v 0.11835 l 0.0636,-0.0543 v 0.11731 l 0.0631,-0.0538 v 0.11732 l 0.063,-0.0537 v 0.11626 l 0.0625,-0.0532 v 0.11575 l 0.062,-0.0527 v 0.11525 l 0.062,-0.0527 v 0.11472 l 0.062,-0.0527 v 0.11422 l 0.0615,-0.0527 v 0.11419 l 0.061,-0.0522 v 0.11369 l 0.061,-0.0522 v 0.11264 l 0.0605,-0.0517 v 0.11266 l 0.0605,-0.0517 v 0.11163 l 0.06,-0.0512 v 0.1111 l 0.0594,-0.0506 v 0.11059 l 0.0594,-0.0506 v 0.11007 l 0.0594,-0.0506 v 0.10956 l 0.0584,-0.0496 v 0.10851 l 0.0589,-0.0501 v 0.10851 l 0.0579,-0.0496 v 0.108 l 0.0579,-0.0496 v 0.1075 l 0.0579,-0.0496 v 0.10748 l 0.0574,-0.0491 v 0.10644 l 0.0568,-0.0486 v 0.10544 l 0.0568,-0.0486 v 0.10541 l 0.0568,-0.0486 v 0.10491 l 0.0558,-0.0475 v 0.10387 l 0.0563,-0.048 v 0.10385 l 0.0553,-0.047 v 0.10284 l 0.0553,-0.047 v 0.10234 l 0.0553,-0.047 v 0.10182 l 0.0548,-0.0465 v 0.10128 l 0.0543,-0.0465 v 0.10131 l 0.0543,-0.0465 v 0.10075 l 0.0537,-0.046 v 0.0997 l 0.0538,-0.046 v 0.0997 l 0.0532,-0.0455 v 0.0987 l 0.0532,-0.0455 v 0.0982 l 0.0527,-0.045 v 0.0977 l 0.0522,-0.0444 v 0.0972 l 0.0522,-0.0444 v 0.0967 l 0.0517,-0.0439 v 0.0956 l 0.0517,-0.0439 v 0.0956 l 0.0512,-0.0434 v 0.0946 l 0.0512,-0.0434 v 0.0946 l 0.0506,-0.0434 v 0.094 l 0.0506,-0.0434 v 0.0935 l 0.0501,-0.0429 v 0.093 l 0.0496,-0.0424 v 0.0925 l 0.0496,-0.0424 v 0.0915 l 0.0491,-0.0419 v 0.0915 l 0.0491,-0.0419 v 0.0904 l 0.0486,-0.0413 v 0.0904 l 0.0486,-0.0414 v 0.0894 l 0.048,-0.0408 v 0.0889 l 0.0476,-0.0403 v 0.0884 l 0.0475,-0.0403 v 0.0879 l 0.047,-0.0403 v 0.0873 l 0.047,-0.0403 v 0.0873 l 0.0465,-0.0398 v 0.0863 l 0.0465,-0.0398 v 0.0858 l 0.046,-0.0393 v 0.0858 l 0.046,-0.0393 v 0.0847 l 0.045,-0.0382 v 0.0837 l 0.0455,-0.0388 v 0.0837 l 0.0449,-0.0382 v 0.0832 l 0.0444,-0.0377 v 0.0827 l 0.0444,-0.0377 v 0.0816 l 0.0439,-0.0377 v 0.0817 l 0.0434,-0.0372 v 0.0811 l 0.0434,-0.0372 v 0.0806 l 0.0434,-0.0372 v 0.0806 l 0.0429,-0.0367 v 0.079 l 0.0424,-0.0362 v 0.079 l 0.0424,-0.0362 v 0.0785 l 0.0419,-0.0356 v 0.0775 l 0.0419,-0.0356 v 0.077 l 0.0413,-0.0351 v 0.077 l 0.0413,-0.0351 v 0.076 l 0.0403,-0.0346 v 0.0755 l 0.0408,-0.0346 v 0.0749 l 0.0403,-0.0346 v 0.0749 l 0.0398,-0.0341 v 0.0744 l 0.0398,-0.0341 v 0.0734 l 0.0393,-0.0336 v 0.0729 l 0.0393,-0.0336 v 0.0729 l 0.0387,-0.0331 v 0.0718 l 0.0382,-0.0325 v 0.0713 l 0.0382,-0.0326 v 0.0708 l 0.0377,-0.032 v 0.0698 l 0.0377,-0.032 v 0.0698 l 0.0372,-0.0315 v 0.0687 l 0.0372,-0.0315 v 0.0687 l 0.0367,-0.0315 v 0.0682 l 0.0367,-0.0315 v 0.0677 l 0.0362,-0.031 v 0.0672 l 0.0357,-0.0305 v 0.0667 l 0.0357,-0.0305 v 0.0656 l 0.0351,-0.03 v 0.0656 l 0.0351,-0.03 v 0.0646 l 0.0346,-0.0294 v 0.0646 l 0.0346,-0.0294 v 0.0636 l 0.0341,-0.0289 v 0.063 l 0.0336,-0.0284 v 0.0625 l 0.0336,-0.0284 v 0.062 l 0.0331,-0.0284 v 0.0615 l 0.0331,-0.0284 v 0.0615 l 0.0326,-0.0279 v 0.0605 l 0.0325,-0.0279 v 0.0605 l 0.032,-0.0274 v 0.0594 l 0.032,-0.0274 v 0.0589 l 0.0315,-0.0269 v 0.0584 l 0.031,-0.0264 v 0.0579 l 0.031,-0.0265 v 0.0574 l 0.0305,-0.0259 v 0.0563 l 0.0305,-0.0259 v 0.0563 l 0.03,-0.0254 v 0.0553 l 0.03,-0.0254 v 0.0548 l 0.0294,-0.0254 v 0.0553 l 0.0289,-0.0249 v 0.0537 l 0.0289,-0.0249 v 0.0537 l 0.0289,-0.0249 v 0.0532 l 0.0284,-0.0243 v 0.0527 l 0.0279,-0.0238 v 0.0517 l 0.0274,-0.0233 v 0.0512 l 0.0279,-0.0238 v 0.0512 l 0.0269,-0.0228 v 0.0501 l 0.0269,-0.0228 v 0.0496 l 0.0269,-0.0228 v 0.0491 l 0.0258,-0.0222 v 0.0486 l 0.0263,-0.0228 v 0.0486 l 0.0253,-0.0217 v 0.0476 l 0.0258,-0.0222 v 0.0476 l 0.0248,-0.0212 v 0.0465 l 0.0248,-0.0212 v 0.046 l 0.0248,-0.0212 v 0.0455 l 0.0243,-0.0206 v 0.045 l 0.0238,-0.0201 v 0.0444 l 0.0238,-0.0201 v 0.0439 l 0.0233,-0.0196 v 0.0429 l 0.0233,-0.0196 v 0.0424 l 0.0227,-0.0196 v 0.0429 l 0.0227,-0.0196 v 0.0419 l 0.0222,-0.019 v 0.0413 l 0.0217,-0.0185 v 0.0408 l 0.0217,-0.0185 v 0.0398 l 0.0212,-0.018 v 0.0398 l 0.0212,-0.018 v 0.0393 l 0.0207,-0.0175 v 0.0382 l 0.0207,-0.0175 v 0.0377 l 0.0202,-0.0169 v 0.0372 l 0.0196,-0.0164 v 0.0364 l 0.0196,-0.0164 v 0.0362 l 0.0196,-0.0164 v 0.0357 l 0.0186,-0.0161 v 0.0352 l 0.0191,-0.0167 v 0.0352 l 0.0181,-0.0156 v 0.0341 l 0.0186,-0.0161 v 0.0341 l 0.0176,-0.0151 v 0.0331 l 0.0176,-0.0151 v 0.0325 l 0.0176,-0.0151 v 0.032 l 0.0165,-0.014 v 0.031 l 0.017,-0.0146 v 0.031 l 0.016,-0.0135 v 0.03 l 0.0165,-0.014 v 0.03 l 0.0155,-0.0135 v 0.0294 l 0.0155,-0.0135 v 0.029 l 0.0155,-0.0135 v 0.0284 l 0.015,-0.013 v 0.0279 l 0.0145,-0.0124 v 0.0274 l 0.0145,-0.0124 v 0.0269 l 0.014,-0.0119 v 0.0259 l 0.0139,-0.0119 v 0.0259 l 0.0134,-0.0114 v 0.0249 l 0.0134,-0.0114 v 0.0243 l 0.0129,-0.0109 v 0.0238 l 0.0124,-0.0103 v 0.0233 l 0.0124,-0.0103 v 0.0228 l 0.0119,-0.0103 v 0.0222 l 0.0119,-0.0103 v 0.0222 l 0.0114,-0.01 v 0.0212 l 0.0114,-0.01 v 0.0212 l 0.0108,-0.009 v 0.0201 l 0.0109,-0.009 v 0.0196 l 0.0104,-0.009 v 0.0191 l 0.01,-0.008 v 0.0185 l 0.01,-0.008 v 0.0175 l 0.009,-0.008 v 0.0175 l 0.009,-0.008 v 0.0164 l 0.009,-0.008 v 0.0164 l 0.008,-0.007 v 0.0161 l 0.008,-0.007 v 0.0156 l 0.008,-0.007 v 0.0156 l 0.008,-0.007 v 0.014 l 0.007,-0.006 v 0.014 l 0.007,-0.006 v 0.0135 l 0.007,-0.006 v 0.0124 l 0.007,-0.006 v 0.0119 l 0.006,-0.005 v 0.0114 l 0.006,-0.005 v 0.0108 l 0.006,-0.005 v 0.0103 l 0.006,-0.005 v 0.01 l 0.005,-0.005 v 0.01 l 0.005,-0.004 v 0.009 l 0.005,-0.004 v 0.009 l 0.004,-0.004 v 0.008 l 0.004,-0.003 v 0.007 l 0.004,-0.003 v 0.007 l 0.004,-0.003 v 0.006 l 0.003,-0.003 v 0.006 l 0.003,-0.003 v 0.005 l 0.003,-0.003 v 0.004 l 0.002,-0.003 v 0.004 l 0.002,-0.003 v 0.003 l 0.002,-0.003 v 0.003 h 0.001 v 0.003 h 10e-4 v 0.003 h 0.001 v 0.003 h 5.3e-4 v 0 l 16.91421,-14.43064 0.0351,0.0713 0.0527,-0.0274 0.0816,0.16174 0.0527,-0.0274 0.0811,0.16123 0.0527,-0.0274 0.0811,0.16124 0.0522,-0.0274 0.0811,0.16123 0.0527,-0.0274 0.0806,0.1602 0.0522,-0.0274 0.0806,0.16018 0.0522,-0.0274 0.0806,0.16021 0.0522,-0.0274 0.0801,0.15968 0.0517,-0.0269 0.0801,0.15917 0.0522,-0.0274 0.0796,0.15864 0.0517,-0.0269 0.0796,0.15864 0.0517,-0.0269 0.0796,0.15811 0.0517,-0.0269 0.0791,0.15761 0.0517,-0.0268 0.0791,0.15708 0.0512,-0.0269 0.0791,0.15708 0.0512,-0.0269 0.0791,0.15708 0.0512,-0.0269 0.0786,0.15658 0.0506,-0.0265 0.0786,0.15555 0.0506,-0.0265 0.0786,0.15555 0.0506,-0.0265 0.078,0.15502 0.0507,-0.0265 0.078,0.15505 0.0506,-0.0265 0.0775,0.15449 0.0506,-0.0265 0.0775,0.15452 0.0501,-0.0265 0.0775,0.15399 0.0501,-0.0265 0.077,0.15348 0.0501,-0.0265 0.077,0.15349 0.0496,-0.0259 0.077,0.15295 0.0496,-0.0259 0.077,0.15245 0.0496,-0.0259 0.0765,0.15192 0.0496,-0.0259 0.0765,0.1514 0.0496,-0.0259 0.076,0.15139 0.0496,-0.0259 0.076,0.15143 0.0491,-0.0259 0.076,0.15089 0.0491,-0.0254 0.0754,0.14986 0.0491,-0.0254 0.0754,0.14986 0.0486,-0.0254 0.0754,0.14986 0.0491,-0.0259 0.0749,0.14933 0.0486,-0.0254 0.0749,0.14883 0.0486,-0.0254 0.0749,0.14883 0.0486,-0.0254 0.0744,0.14832 0.0481,-0.0249 0.0744,0.1478 0.0486,-0.0254 0.0739,0.14726 0.0481,-0.0254 0.0744,0.1478 0.0475,-0.0249 0.0739,0.14676 0.0481,-0.0254 0.0739,0.14674 0.0475,-0.0249 0.0734,0.14573 0.0475,-0.0249 0.0734,0.14626 0.0476,-0.0249 0.0734,0.14521 0.0475,-0.0249 0.0729,0.1452 0.047,-0.0243 0.0729,0.1447 0.0475,-0.0249 0.0724,0.1442 0.0465,-0.0243 0.0729,0.14418 0.047,-0.0249 0.0723,0.14367 0.0465,-0.0243 0.0723,0.14367 0.047,-0.0243 0.0718,0.14261 0.0465,-0.0243 0.0718,0.14261 0.046,-0.0243 0.0718,0.14263 0.0465,-0.0243 0.0713,0.14211 0.0465,-0.0243 0.0713,0.1416 0.046,-0.0243 0.0713,0.14158 0.046,-0.0238 0.0708,0.14054 0.0455,-0.0238 0.0708,0.14055 0.046,-0.0243 0.0708,0.14057 0.0455,-0.0238 0.0703,0.13954 0.0455,-0.0238 0.0703,0.13954 0.0455,-0.0238 0.0703,0.13955 0.0449,-0.0233 0.0698,0.13849 0.0455,-0.0238 0.0698,0.13849 0.0449,-0.0233 0.0693,0.13798 0.0455,-0.0238 0.0693,0.13795 0.045,-0.0233 0.0687,0.13692 0.0444,-0.0233 0.0693,0.13748 0.045,-0.0233 0.0687,0.13642 0.0444,-0.0233 0.0687,0.13642 0.0444,-0.0233 0.0682,0.13589 0.0444,-0.0233 0.0682,0.13592 0.0439,-0.0233 0.0682,0.13539 0.0439,-0.0233 0.0682,0.13541 0.0439,-0.0227 0.0677,0.13435 0.0434,-0.0227 0.0677,0.13435 0.0439,-0.0227 0.0672,0.13383 0.0439,-0.0228 0.0672,0.13333 0.0434,-0.0228 0.0672,0.13333 0.0434,-0.0228 0.0667,0.13282 0.0434,-0.0227 0.0667,0.13279 0.0429,-0.0228 0.0667,0.13229 0.0429,-0.0227 0.0667,0.13229 0.0429,-0.0222 0.0661,0.13126 0.0429,-0.0222 0.0656,0.13073 0.0429,-0.0222 0.0656,0.13076 0.0424,-0.0222 0.0656,0.13074 0.0424,-0.0222 0.0656,0.13023 0.0429,-0.0222 0.0651,0.12973 0.0419,-0.0222 0.0651,0.1292 0.0419,-0.0217 0.0651,0.1292 0.0424,-0.0222 0.0646,0.1287 0.0419,-0.0217 0.0646,0.12817 0.0413,-0.0217 0.0646,0.12814 0.0419,-0.0217 0.0641,0.12713 0.0419,-0.0217 0.0641,0.12766 0.0408,-0.0212 0.0641,0.12661 0.0413,-0.0217 0.0636,0.1266 0.0413,-0.0217 0.0636,0.12607 0.0408,-0.0212 0.0636,0.12559 0.0408,-0.0212 0.0636,0.12557 0.0408,-0.0212 0.0631,0.12507 0.0408,-0.0212 0.0625,0.12454 0.0408,-0.0212 0.0625,0.12454 0.0403,-0.0212 0.0625,0.12404 0.0403,-0.0212 0.0625,0.12404 0.0403,-0.0212 0.062,0.12351 0.0398,-0.0206 0.062,0.12298 0.0398,-0.0206 0.062,0.12247 0.0403,-0.0212 0.0615,0.12247 0.0398,-0.0206 0.0615,0.12197 0.0398,-0.0206 0.061,0.12142 0.0398,-0.0206 0.061,0.12145 0.0393,-0.0206 0.061,0.12091 0.0393,-0.0206 0.061,0.12092 0.0393,-0.0206 0.0605,0.12041 0.0388,-0.0201 0.0605,0.11988 0.0393,-0.0201 0.06,0.11938 0.0393,-0.0206 0.0599,0.11938 0.0382,-0.0201 0.06,0.11885 0.0393,-0.0201 0.0594,0.11834 0.0382,-0.0201 0.0594,0.11834 0.0388,-0.0201 0.0594,0.11782 0.0382,-0.0201 0.0589,0.11729 0.0382,-0.0201 0.0589,0.11729 0.0382,-0.0201 0.0589,0.11732 0.0377,-0.0196 0.0584,0.11625 0.0382,-0.0201 0.0584,0.11625 0.0377,-0.0196 0.0584,0.11575 0.0377,-0.0196 0.0579,0.11523 0.0372,-0.0196 0.0579,0.11525 0.0377,-0.0196 0.0579,0.11472 0.0372,-0.0196 0.0574,0.11422 0.0372,-0.0196 0.0574,0.11422 0.0367,-0.0191 0.0574,0.11369 0.0372,-0.0196 0.0568,0.11316 0.0367,-0.0191 0.0568,0.11316 0.0372,-0.0191 0.0563,0.11213 0.0362,-0.019 0.0568,0.11266 0.0367,-0.0191 0.0563,0.11163 0.0362,-0.019 0.0563,0.11163 0.0362,-0.0185 0.0558,0.1111 0.0362,-0.019 0.0558,0.1111 0.0362,-0.019 0.0558,0.11059 0.0357,-0.0185 0.0553,0.11009 0.0362,-0.019 0.0553,0.11007 0.0351,-0.0185 0.0553,0.10956 0.0357,-0.0185 0.0548,0.10906 0.0357,-0.0185 0.0548,0.10854 0.0351,-0.0185 0.0548,0.10851 0.0351,-0.0185 0.0543,0.108 0.0351,-0.0185 0.0543,0.108 0.0346,-0.018 0.0543,0.10748 0.0351,-0.0185 0.0537,0.10697 0.0346,-0.018 0.0537,0.10646 0.0346,-0.018 0.0537,0.10647 0.0346,-0.018 0.0532,0.10594 0.0341,-0.018 0.0532,0.10594 0.0346,-0.018 0.0527,0.10488 0.0341,-0.018 0.0532,0.10541 0.0336,-0.0175 0.0527,0.1044 0.0341,-0.018 0.0527,0.10438 0.0336,-0.0175 0.0522,0.10335 0.0336,-0.0175 0.0522,0.10388 0.0341,-0.0175 0.0517,0.10284 0.0336,-0.0175 0.0517,0.10281 0.0336,-0.0175 0.0512,0.10234 0.0336,-0.0175 0.0512,0.10231 0.0331,-0.0169 0.0512,0.10181 0.0336,-0.0175 0.0506,0.10128 0.0331,-0.0169 0.0506,0.10078 0.0331,-0.0169 0.0506,0.10078 0.0326,-0.0172 0.0507,0.10027 0.0325,-0.0169 0.0501,0.10025 0.0326,-0.0169 0.0501,0.0992 0.0326,-0.0169 0.0501,0.0997 0.032,-0.0164 0.0496,0.0987 0.0326,-0.0169 0.0496,0.0987 0.0315,-0.0164 0.0496,0.0982 0.032,-0.0164 0.0491,0.0977 0.032,-0.0164 0.0491,0.0971 0.0315,-0.0164 0.0491,0.0971 0.0315,-0.0164 0.0486,0.0971 0.0315,-0.0164 0.0486,0.0961 0.031,-0.0161 0.0486,0.0961 0.0315,-0.0164 0.0481,0.0956 0.031,-0.0161 0.0481,0.0956 0.0315,-0.0164 0.0475,0.0951 0.031,-0.0161 0.0476,0.0946 0.0305,-0.0161 0.0475,0.0946 0.0305,-0.0161 0.0475,0.0941 0.031,-0.0161 0.047,0.0935 0.03,-0.0156 0.047,0.093 0.0305,-0.0161 0.047,0.093 0.03,-0.0156 0.0465,0.0925 0.03,-0.0156 0.0465,0.092 0.0305,-0.0161 0.046,0.092 0.03,-0.0156 0.046,0.0915 0.0295,-0.0156 0.046,0.0915 0.0294,-0.0156 0.046,0.091 0.03,-0.0156 0.0455,0.0904 0.0289,-0.0151 0.0455,0.0899 0.0294,-0.0156 0.045,0.0899 0.0295,-0.0156 0.045,0.0894 0.0289,-0.0151 0.045,0.0889 0.0289,-0.0151 0.045,0.0889 0.0289,-0.0151 0.0444,0.0884 0.0284,-0.0151 0.0444,0.0879 0.0284,-0.0151 0.0444,0.0879 0.0284,-0.0151 0.0439,0.0873 0.0284,-0.0151 0.0439,0.0873 0.0284,-0.0151 0.0434,0.0868 0.0279,-0.0145 0.0434,0.0863 0.0279,-0.0145 0.0434,0.0858 0.0284,-0.0151 0.0429,0.0858 0.0279,-0.0146 0.0429,0.0853 0.0274,-0.0145 0.0429,0.0847 0.0274,-0.0146 0.0429,0.0848 0.0274,-0.0146 0.0424,0.0842 0.0269,-0.014 0.0424,0.0837 0.0274,-0.0145 0.0419,0.0837 0.0274,-0.0145 0.0419,0.0832 0.0269,-0.014 0.0419,0.0827 0.0269,-0.014 0.0413,0.0827 0.0269,-0.014 0.0413,0.0817 0.0263,-0.014 0.0413,0.0822 0.0269,-0.014 0.0408,0.0811 0.0263,-0.014 0.0408,0.0811 0.0264,-0.014 0.0408,0.0811 0.0264,-0.0135 0.0403,0.0801 0.0258,-0.0135 0.0403,0.0796 0.0258,-0.0135 0.0403,0.0796 0.0258,-0.0135 0.0398,0.0796 0.0258,-0.0135 0.0398,0.0785 0.0253,-0.0135 0.0398,0.0791 0.0258,-0.0135 0.0393,0.078 0.0253,-0.0135 0.0393,0.0781 0.0248,-0.013 0.0393,0.0775 0.0253,-0.013 0.0388,0.077 0.0253,-0.0135 0.0388,0.077 0.0248,-0.013 0.0388,0.0765 0.0248,-0.013 0.0382,0.076 0.0243,-0.013 0.0382,0.076 0.0248,-0.013 0.0382,0.0754 0.0243,-0.013 0.0377,0.0749 0.0243,-0.013 0.0377,0.0749 0.0243,-0.013 0.0377,0.0749 0.0243,-0.0124 0.0372,0.0739 0.0238,-0.0124 0.0372,0.0734 0.0238,-0.0124 0.0372,0.0734 0.0238,-0.0124 0.0367,0.0728 0.0233,-0.0124 0.0367,0.0729 0.0238,-0.0124 0.0362,0.0723 0.0238,-0.0124 0.0362,0.0718 0.0233,-0.0124 0.0362,0.0718 0.0227,-0.0119 0.0362,0.0713 0.0233,-0.0124 0.0356,0.0708 0.0227,-0.0119 0.0357,0.0708 0.0233,-0.0119 0.0351,0.0698 0.0227,-0.0119 0.0351,0.0698 0.0227,-0.0119 0.0351,0.0698 0.0227,-0.0119 0.0346,0.0693 0.0222,-0.0114 0.0346,0.0687 0.0227,-0.0119 0.0341,0.0682 0.0217,-0.0114 0.0346,0.0682 0.0222,-0.0119 0.0341,0.0677 0.0217,-0.0114 0.0341,0.0677 0.0222,-0.0114 0.0336,0.0667 0.0217,-0.0114 0.0336,0.0667 0.0217,-0.0114 0.0336,0.0667 0.0217,-0.0114 0.0331,0.0661 0.0212,-0.0114 0.0331,0.0656 0.0212,-0.0114 0.0331,0.0657 0.0212,-0.0109 0.0326,0.0646 0.0212,-0.0108 0.0326,0.0646 0.0212,-0.0109 0.032,0.0641 0.0207,-0.0109 0.032,0.0641 0.0212,-0.0108 0.032,0.0636 0.0207,-0.0109 0.0315,0.063 0.0207,-0.0109 0.0315,0.063 0.0202,-0.0108 0.0315,0.0625 0.0202,-0.0109 0.0315,0.0625 0.0202,-0.0103 0.031,0.0615 0.0202,-0.0103 0.031,0.0615 0.0202,-0.0103 0.0305,0.061 0.0196,-0.0103 0.0305,0.061 0.0196,-0.0103 0.0305,0.0605 0.0202,-0.0103 0.03,0.06 0.0196,-0.0103 0.03,0.0599 0.0191,-0.0103 0.03,0.0594 0.0191,-0.0103 0.03,0.0594 0.0191,-0.01 0.0294,0.0584 0.0186,-0.01 0.0295,0.0584 0.0191,-0.01 0.0289,0.0579 0.0191,-0.01 0.0289,0.0574 0.0186,-0.01 0.0289,0.0574 0.0186,-0.01 0.0284,0.0568 0.0186,-0.01 0.0284,0.0569 0.0181,-0.009 0.0284,0.0558 0.0181,-0.009 0.0284,0.0558 0.0181,-0.009 0.0279,0.0553 0.0176,-0.009 0.0279,0.0553 0.0181,-0.009 0.0274,0.0548 0.0181,-0.009 0.0274,0.0543 0.017,-0.009 0.0274,0.0537 0.0181,-0.009 0.0269,0.0537 0.017,-0.009 0.0269,0.0532 0.0176,-0.009 0.0269,0.0532 0.0171,-0.009 0.0264,0.0527 0.0171,-0.009 0.0263,0.0522 0.017,-0.009 0.0264,0.0517 0.017,-0.009 0.0258,0.0517 0.0165,-0.009 0.0258,0.0511 0.0165,-0.009 0.0258,0.0512 0.0165,-0.009 0.0253,0.0506 0.0165,-0.009 0.0253,0.0506 0.016,-0.008 0.0253,0.0496 0.016,-0.008 0.0248,0.0496 0.016,-0.008 0.0248,0.0491 0.016,-0.008 0.0248,0.0486 0.016,-0.008 0.0243,0.0486 0.0155,-0.008 0.0243,0.0481 0.0155,-0.008 0.0243,0.048 0.0155,-0.008 0.0238,0.0475 0.015,-0.008 0.0238,0.047 0.0155,-0.008 0.0233,0.0465 0.0155,-0.008 0.0233,0.0465 0.015,-0.008 0.0233,0.046 0.015,-0.008 0.0227,0.0454 0.015,-0.008 0.0227,0.0455 0.0145,-0.008 0.0227,0.045 0.0145,-0.008 0.0227,0.0449 0.0145,-0.008 0.0222,0.0444 0.014,-0.007 0.0222,0.0439 0.0145,-0.007 0.0217,0.0434 0.0145,-0.008 0.0217,0.0434 0.0139,-0.007 0.0217,0.0429 0.0139,-0.007 0.0212,0.0424 0.0139,-0.007 0.0212,0.0424 0.0134,-0.007 0.0212,0.0419 0.0134,-0.007 0.0207,0.0413 0.0134,-0.007 0.0207,0.0413 0.0134,-0.007 0.0207,0.0408 0.0134,-0.007 0.0202,0.0403 0.0129,-0.007 0.0202,0.0398 0.0129,-0.007 0.0202,0.0398 0.0124,-0.007 0.0202,0.0398 0.0129,-0.007 0.0196,0.0388 0.0124,-0.007 0.0196,0.0388 0.0124,-0.007 0.0196,0.0388 0.0124,-0.007 0.0191,0.0382 0.0124,-0.006 0.0186,0.0372 0.0124,-0.006 0.0186,0.0372 0.0119,-0.006 0.0186,0.0367 0.0119,-0.006 0.0186,0.0367 0.0119,-0.006 0.0181,0.0362 0.0119,-0.006 0.0181,0.0362 0.0114,-0.006 0.0181,0.0357 0.0114,-0.006 0.0176,0.0352 0.0114,-0.006 0.0176,0.0351 0.0114,-0.006 0.0176,0.0351 0.0108,-0.006 0.0171,0.0341 0.0114,-0.006 0.017,0.0341 0.0108,-0.006 0.0165,0.0331 0.0104,-0.006 0.017,0.0336 0.0108,-0.006 0.0165,0.0325 0.0104,-0.006 0.0165,0.0325 0.0104,-0.005 0.016,0.032 0.0104,-0.006 0.016,0.0315 0.01,-0.005 0.016,0.0315 0.0103,-0.005 0.0155,0.031 0.01,-0.005 0.0155,0.0305 0.0103,-0.005 0.015,0.0299 0.01,-0.005 0.015,0.03 0.01,-0.005 0.015,0.0299 0.009,-0.005 0.015,0.0294 0.009,-0.005 0.0145,0.0284 0.009,-0.005 0.0145,0.0284 0.009,-0.005 0.0139,0.0279 0.009,-0.005 0.0139,0.0279 0.009,-0.005 0.0139,0.0274 0.009,-0.005 0.0134,0.0274 0.009,-0.005 0.0134,0.0269 0.009,-0.005 0.0134,0.0265 0.009,-0.005 0.0129,0.0265 0.008,-0.004 0.0129,0.0254 0.008,-0.004 0.0129,0.0254 0.008,-0.004 0.0124,0.0249 0.008,-0.004 0.0124,0.0249 0.008,-0.004 0.0124,0.0244 0.008,-0.004 0.0119,0.0238 0.008,-0.004 0.0119,0.0238 0.007,-0.004 0.0119,0.0233 0.008,-0.004 0.0114,0.0228 0.007,-0.004 0.0114,0.0228 0.008,-0.004 0.0109,0.0222 0.007,-0.004 0.0114,0.0222 0.007,-0.004 0.0108,0.0212 0.007,-0.004 0.0109,0.0212 0.007,-0.004 0.0103,0.0212 0.007,-0.004 0.0103,0.0201 0.007,-0.004 0.0103,0.0206 0.006,-0.003 0.01,0.0196 0.006,-0.003 0.01,0.019 0.007,-0.004 0.009,0.019 0.006,-0.003 0.009,0.0185 0.006,-0.003 0.009,0.0185 0.006,-0.003 0.009,0.018 0.006,-0.003 0.009,0.0175 0.006,-0.003 0.009,0.0175 0.006,-0.003 0.008,0.0169 0.006,-0.003 0.008,0.0172 0.005,-0.003 0.008,0.0161 0.005,-0.003 0.008,0.0161 0.005,-0.003 0.008,0.0156 0.005,-0.003 0.008,0.0151 0.005,-0.003 0.008,0.0151 0.005,-0.003 0.007,0.0145 0.005,-0.003 0.007,0.0146 0.005,-0.003 0.007,0.014 0.005,-0.003 0.007,0.014 0.004,-0.003 0.007,0.013 0.004,-0.003 0.007,0.013 0.004,-0.003 0.006,0.0124 0.004,-0.003 0.006,0.0119 0.004,-0.003 0.006,0.0119 0.004,-0.003 0.006,0.0114 0.004,-0.003 0.006,0.0114 0.004,-0.003 0.005,0.0103 0.003,-0.003 0.005,0.01 0.003,-0.003 0.005,0.0103 0.004,-0.003 0.005,0.009 0.003,-0.003 0.005,0.009 0.003,-0.003 0.004,0.009 0.003,-0.003 0.004,0.009 0.003,-0.003 0.004,0.008 0.003,-0.003 0.004,0.008 h 0.003 l 0.004,0.007 h 0.002 l 0.004,0.007 h 0.002 l 0.004,0.007 h 0.002 l 0.004,0.007 h 0.002 l 0.003,0.006 h 0.002 l 0.003,0.006 h 0.002 l 0.003,0.005 h 0.002 l 0.003,0.005 h 0.002 l 0.002,0.004 h 0.002 l 0.002,0.004 h 0.002 l 0.002,0.004 h 10e-4 l 0.002,0.004 h 0.002 l 0.002,0.003 h 10e-4 l 0.002,0.003 h 10e-4 l 0.001,0.003 h 5.3e-4 l 0.001,0.003 h 10e-4 l 10e-4,0.003 h 5.3e-4 5.3e-4 5.2e-4 5.3e-4 5.3e-4 5.3e-4 l 18.87223,-9.85417 v 0 l -21.06986,-38.35188 h 35.24799 v 0 0 0 l -1.52445,-1.57561 -0.2925,-0.3023 -6.34225,-6.55671 -0.59581,-0.61598 -72.38732,-74.83471 -0.002,-0.002 -0.001,-0.001 -10e-4,-0.001 -0.0212,-0.0212 -0.004,-0.004 -0.03,-0.03 -0.0186,-0.0186 -0.0139,-0.0139 -0.015,-0.0155 v 0.001 l -0.008,-0.009 v 0.001 l -0.008,-0.009 -0.008,-0.009 -0.009,-0.009 v 0.001 l -0.009,-0.01 -0.009,-0.01 v 0.001 l -0.0196,-0.0207 v 0.001 l -0.0103,-0.0109 -0.0109,-0.0114 v 0.001 l -0.0222,-0.0233 v 0.001 l -0.0233,-0.0243 v 0.001 l -0.0243,-0.0253 v 0.001 l -0.0253,-0.0263 v 0.001 l -0.0134,-0.0139 -0.0134,-0.0139 v 10e-4 l -0.0139,-0.0145 -0.014,-0.0145 v 0.001 l -0.0145,-0.015 -0.0145,-0.015 v 0.001 l -0.0305,-0.0315 v 0.001 l -0.0155,-0.016 -0.0155,-0.016 v 0.001 l -0.0165,-0.017 -0.016,-0.0165 v 0.001 l -0.017,-0.0176 -0.0165,-0.0171 v 0.001 l -0.0176,-0.0181 -0.0176,-0.0181 v 10e-4 l -0.0176,-0.0181 -0.0186,-0.0191 v 0.001 l -0.0372,-0.0382 v 0.001 l -0.0382,-0.0393 v 0.001 l -0.0196,-0.0202 -0.0196,-0.0202 v 0.001 l -0.0202,-0.0207 -0.0207,-0.0212 v 0.001 l -0.0419,-0.0429 v 0.001 l -0.0212,-0.0217 -0.0217,-0.0222 v 0.001 l -0.0217,-0.0222 -0.0222,-0.0227 v 0.001 l -0.0227,-0.0233 -0.0227,-0.0233 v 0.001 l -0.0233,-0.0243 v 10e-4 l -0.0232,-0.0243 v 0.001 l -0.0238,-0.0248 v 10e-4 l -0.0238,-0.0248 v 0.001 l -0.0243,-0.0253 v 0.001 l -0.0248,-0.0258 v 0.001 l -0.0248,-0.0258 v 0.001 l -0.0248,-0.0258 v 0.002 l -0.0258,-0.0269 -0.0253,-0.0264 v 10e-4 l -0.0264,-0.0274 v 0.001 l -0.0258,-0.0269 v 10e-4 l -0.0269,-0.0279 v 0.001 l -0.0269,-0.0279 v 0.001 l -0.0269,-0.0279 v 0.002 l -0.0279,-0.0289 -0.0274,-0.0284 v 10e-4 l -0.0279,-0.0289 v 0.001 l -0.0284,-0.0295 v 0.001 l -0.0289,-0.03 v 0.002 l -0.0289,-0.03 -0.0289,-0.03 v 0.001 l -0.0295,-0.0305 v 0.001 l -0.03,-0.031 v 0.001 l -0.03,-0.031 v 10e-4 l -0.0305,-0.0315 v 0.001 l -0.0305,-0.0315 v 0.001 l -0.031,-0.032 v 0.001 l -0.031,-0.032 v 0.001 l -0.0315,-0.0326 v 0.001 l -0.032,-0.0331 v 10e-4 l -0.032,-0.0331 v 0.002 l -0.0326,-0.0336 -0.0326,-0.0336 v 0.002 l -0.0331,-0.0341 -0.0331,-0.0341 v 10e-4 l -0.0336,-0.0346 v 0.001 l -0.0336,-0.0346 v 0.001 l -0.0341,-0.0351 v 0.001 l -0.0346,-0.0357 v 0.001 l -0.0346,-0.0357 v 0.001 l -0.0351,-0.0362 v 0.001 l -0.0351,-0.0362 v 0.001 l -0.0357,-0.0367 v 0.001 l -0.0357,-0.0367 v 10e-4 l -0.0362,-0.0372 v 0.001 l -0.0367,-0.0377 v 0.001 l -0.0367,-0.0377 v 10e-4 l -0.0372,-0.0382 v 0.001 l -0.0372,-0.0382 v 0.001 l -0.0377,-0.0388 v 10e-4 l -0.0377,-0.0388 v 0.002 l -0.0382,-0.0398 v 0.002 l -0.0382,-0.0398 v 0.002 l -0.0388,-0.0403 v 0.002 l -0.0393,-0.0408 v 0.002 l -0.0393,-0.0408 v 0.002 l -0.0398,-0.0413 v 0.002 l -0.0398,-0.0413 v 0.002 l -0.0403,-0.0419 v 0.002 l -0.0408,-0.0424 v 0.001 l -0.0403,-0.0419 v 0.002 l -0.0413,-0.0429 v 0.002 l -0.0413,-0.0429 v 0.002 l -0.0419,-0.0434 v 0.002 l -0.0419,-0.0434 v 0.002 l -0.0424,-0.0439 v 0.002 l -0.0424,-0.0439 v 0.002 l -0.0429,-0.0444 v 0.002 l -0.0434,-0.045 v 0.002 l -0.0434,-0.045 v 0.001 l -0.0434,-0.045 v 0.002 l -0.0439,-0.0455 v 0.002 l -0.0444,-0.046 v 0.002 l -0.0444,-0.046 v 0.002 l -0.045,-0.0465 v 0.002 l -0.0455,-0.047 v 0.001 l -0.045,-0.0465 v 0.002 l -0.046,-0.0475 v 0.002 l -0.046,-0.0475 v 0.002 l -0.0465,-0.0481 v 0.002 l -0.0465,-0.0481 v 0.002 l -0.047,-0.0486 v 0.002 l -0.047,-0.0486 v 0.002 l -0.0475,-0.0491 v 0.002 l -0.0475,-0.0491 v 0.002 l -0.0515,-0.0475 v 0.002 l -0.0486,-0.0501 v 0.002 l -0.0486,-0.0501 v 0.002 l -0.0491,-0.0506 v 0.002 l -0.0491,-0.0506 v 0.002 l -0.0496,-0.0512 v 0.002 l -0.0496,-0.0512 v 0.002 l -0.0501,-0.0517 v 0.002 l -0.0506,-0.0522 v 0.002 l -0.0506,-0.0522 v 0.002 l -0.0512,-0.0527 v 0.002 l -0.0512,-0.0527 v 0.002 l -0.0517,-0.0532 v 0.002 l -0.0517,-0.0532 v 0.002 l -0.0522,-0.0537 v 0.002 l -0.0522,-0.0538 v 0.002 l -0.0527,-0.0543 v 0.002 l -0.0532,-0.0548 v 0.002 l -0.0532,-0.0548 v 0.002 l -0.0538,-0.0558 v 0.002 l -0.0537,-0.0558 v 0.002 l -0.0543,-0.0563 v 0.002 l -0.0543,-0.0563 v 0.002 l -0.0548,-0.0568 v 0.002 l -0.0553,-0.0574 v 0.002 l -0.0553,-0.0574 v 0.002 l -0.0553,-0.0574 v 0.003 l -0.0563,-0.0584 v 0.002 l -0.0558,-0.0579 v 0.002 l -0.0568,-0.0589 v 0.003 l -0.0568,-0.0589 v 0.002 l -0.0568,-0.0589 v 0.002 l -0.0574,-0.0608 v 0.003 l -0.0579,-0.06 v 0.002 l -0.0579,-0.0599 v 0.002 l -0.0579,-0.0599 v 0.002 l -0.0589,-0.061 v 0.002 l -0.0584,-0.0605 v 0.002 l -0.0594,-0.0615 v 0.002 l -0.0594,-0.0615 v 0.002 l -0.0594,-0.0615 v 0.002 l -0.06,-0.0625 v 0.002 l -0.0605,-0.0625 v 0.002 l -0.0605,-0.0625 v 0.002 l -0.061,-0.0631 v 0.002 l -0.061,-0.0631 v 0.002 l -0.0615,-0.0636 v 0.002 l -0.062,-0.0641 v 0.002 l -0.062,-0.0641 v 0.002 l -0.062,-0.0641 v 0.002 l -0.0625,-0.0646 v 0.002 l -0.063,-0.0651 v 0.002 l -0.0631,-0.0651 v 0.002 l -0.0636,-0.0656 v 0.002 l -0.0636,-0.0656 v 0.002 l -0.0641,-0.0661 v 0.002 l -0.0646,-0.0667 v 0.002 l -0.0646,-0.0667 v 0.003 l -0.0651,-0.0672 v 0.002 l -0.0651,-0.0672 v 0.002 l -0.0651,-0.0672 v 0.002 l -0.0661,-0.0682 v 0.002 l -0.0661,-0.0682 v 0.002 l -0.0661,-0.0682 v 0.002 l -0.0667,-0.0687 v 0.002 l -0.0672,-0.0693 v 0.002 l -0.0672,-0.0692 v 0.002 l -0.0672,-0.0693 v 0.002 l -0.0682,-0.0703 v 0.002 l -0.0677,-0.0698 v 0.002 l -0.0687,-0.0708 v 0.002 l -0.0687,-0.0708 v 0.002 l -0.0687,-0.0708 v 0.003 l -0.0693,-0.0718 v 0.003 l -0.0698,-0.0724 v 0.003 l -0.0698,-0.0724 v 0.003 l -0.0703,-0.0729 v 0.003 l -0.0703,-0.0729 v 0.003 l -0.0708,-0.0734 v 0.003 l -0.0708,-0.0734 v 0.003 l -0.0713,-0.0739 v 0.003 l -0.0718,-0.0744 v 0.003 l -0.0718,-0.0744 v 0.003 l -0.0724,-0.0749 v 0.003 l -0.0723,-0.0749 v 0.003 l -0.0729,-0.0754 v 0.003 l -0.0729,-0.0754 v 0.003 l -0.0734,-0.076 v 0.003 l -0.0739,-0.0765 v 0.003 l -0.0739,-0.0765 v 0.003 l -0.0739,-0.0765 v 0.003 l -0.0744,-0.077 v 0.003 l -0.0749,-0.0775 v 0.003 l -0.0749,-0.0775 v 0.003 l -0.0754,-0.078 v 0.003 l -0.076,-0.0786 v 0.003 l -0.076,-0.0786 v 0.003 l -0.076,-0.0785 v 0.003 l -0.0765,-0.0791 v 0.003 l -0.077,-0.0796 v 0.003 l -0.077,-0.0796 v 0.003 l -0.0775,-0.0801 v 0.003 l -0.0775,-0.0801 v 0.003 l -0.078,-0.0806 v 0.003 l -0.0786,-0.0811 v 0.003 l -0.0785,-0.0811 v 0.003 l -0.0785,-0.0811 v 0.003 l -0.0796,-0.0822 v 0.003 l -0.0791,-0.0816 v 0.003 l -0.0801,-0.0827 v 0.003 l -0.0801,-0.0827 v 0.002 l -0.0801,-0.0827 v 0.003 l -0.0806,-0.0832 v 0.003 l -0.0806,-0.0832 v 0.003 l -0.0816,-0.0842 v 0.002 l -0.0811,-0.0837 v 0.003 l -0.0816,-0.0842 v 0.003 l -0.0822,-0.0847 v 0.003 l -0.0827,-0.0853 v 0.002 l -0.0822,-0.0848 v 0.003 l -0.0832,-0.0858 v 0.003 l -0.0832,-0.0858 v 0.003 l -0.0837,-0.0863 v 0.003 l -0.0837,-0.0863 v 0.003 l -0.0837,-0.0863 v 0.003 l -0.0848,-0.0879 v 0.003 l -0.0847,-0.0879 v 0.003 l -0.0848,-0.0879 v 0.003 l -0.0853,-0.0884 v 0.003 l -0.0853,-0.0884 v 0.003 l -0.0863,-0.0894 v 0.003 l -0.0858,-0.0889 v 0.003 l -0.0863,-0.0894 v 0.003 l -0.0868,-0.0899 v 0.003 l -0.0873,-0.0904 v 0.003 l -0.0868,-0.0899 v 0.003 l -0.0878,-0.091 v 0.003 l -0.0879,-0.0909 v 0.003 l -0.0884,-0.0915 v 0.003 l -0.0884,-0.0915 v 0.003 l -0.0884,-0.0915 v 0.003 l -0.0894,-0.0925 v 0.004 l -0.0894,-0.0925 v 0.003 l -0.0894,-0.0925 v 0.003 l -0.0899,-0.093 v 0.003 l -0.0899,-0.093 v 0.004 l -0.091,-0.094 v 0.003 l -0.0904,-0.0935 v 0.003 l -0.091,-0.0941 v 0.003 l -0.0915,-0.0946 v 0.003 l -0.0915,-0.0946 v 0.003 l -0.092,-0.0951 v 0.003 l -0.0925,-0.0956 v 0.003 l -0.0925,-0.0956 v 0.003 l -0.0925,-0.0956 v 0.003 l -0.0935,-0.0966 v 0.003 l -0.093,-0.0961 v 0.004 l -0.094,-0.0971 v 0.003 l -0.0935,-0.0966 v 0.003 l -0.0946,-0.0977 v 0.003 l -0.0946,-0.0977 v 0.003 l -0.0946,-0.0977 v 0.003 l -0.0951,-0.0982 v 0.003 l -0.0956,-0.0987 v 0.003 l -0.0956,-0.0987 v 0.003 l -0.0961,-0.0992 v 0.003 l -0.0961,-0.0992 v 0.003 l -0.0966,-0.0997 v 0.003 l -0.0971,-0.10026 v 0.003 l -0.0971,-0.10025 v 0.003 l -0.0971,-0.10025 v 0.003 l -0.0977,-0.10077 v 0.003 l -0.0982,-0.10128 v 0.003 l -0.0982,-0.10128 v 0.003 l -0.0987,-0.1018 v 0.004 l -0.0992,-0.10232 v 0.003 l -0.0987,-0.1018 v 0.004 l -0.0997,-0.10335 v 0.004 l -0.0997,-0.10335 v 0.004 l -0.10025,-0.10387 v 0.004 l -0.10026,-0.10387 v 0.004 l -0.10077,-0.10438 v 0.004 l -0.10077,-0.10438 v 0.004 l -0.10128,-0.1049 v 0.004 l -0.10129,-0.1049 v 0.004 l -0.1018,-0.11005 v 0.004 l -0.10232,-0.10594 v 0.004 l -0.10232,-0.10594 v 0.004 l -0.10283,-0.10646 v 0.004 l -0.10284,-0.10646 v 0.004 l -0.10335,-0.10697 v 0.004 l -0.10336,-0.10697 v 0.004 l -0.10387,-0.10749 v 0.004 l -0.10438,-0.10801 v 0.004 l -0.10439,-0.10801 v 0.004 l -0.10438,-0.108 v 0.004 l -0.10491,-0.10852 v 0.004 l -0.10542,-0.10904 v 0.004 l -0.10593,-0.10955 v 0.003 l -0.10542,-0.10904 v 0.004 l -0.10646,-0.11007 v 0.004 l -0.10645,-0.11007 v 0.004 l -0.10645,-0.11007 v 0.004 l -0.10749,-0.1111 v 0.003 l -0.10697,-0.11059 v 0.004 l -0.10749,-0.1111 v 0.004 l -0.108,-0.11162 v 0.004 l -0.10852,-0.11214 v 0.004 l -0.10852,-0.11213 v 0.004 l -0.10852,-0.11214 v 0.004 l -0.10904,-0.11266 v 0.004 l -0.10955,-0.11317 v 0.004 l -0.10956,-0.11317 v 0.004 l -0.11007,-0.11368 v 0.004 l -0.11007,-0.11369 v 0.004 l -0.11059,-0.11421 v 0.004 l -0.11058,-0.11421 v 0.004 l -0.11111,-0.11472 v 0.004 l -0.11162,-0.11524 v 0.004 l -0.11162,-0.11524 v 0.004 l -0.11214,-0.11575 v 0.004 l -0.11214,-0.11575 v 0.004 l -0.11265,-0.11627 v 0.004 l -0.11266,-0.11627 v 0.004 l -0.11317,-0.11679 v 0.004 l -0.11369,-0.11731 v 0.004 l -0.11368,-0.1173 v 0.003 l -0.11369,-0.1173 v 0.004 l -0.11421,-0.11782 v 0.004 l -0.11472,-0.11886 v 0.004 l -0.11472,-0.11885 v 0.004 l -0.11524,-0.11937 v 0.004 l -0.11576,-0.11989 v 0.004 l -0.11575,-0.11989 v 0.004 l -0.11576,-0.11989 v 0.004 l -0.11627,-0.12041 v 0.004 l -0.11679,-0.12092 v 0.004 l -0.11678,-0.12092 v 0.004 l -0.11731,-0.12144 v 0.004 l -0.11731,-0.12144 v 0.004 l -0.11782,-0.12196 v 0.004 l -0.11834,-0.12247 v 0.004 l -0.11834,-0.12247 v 0.004 l -0.11834,-0.12248 v 0.004 l -0.11937,-0.1235 v 0.004 l -0.11885,-0.12298 v 0.004 l -0.11989,-0.12402 v 0.004 l -0.11938,-0.12355 v 0.004 l -0.1204,-0.12453 v 0.004 l -0.12041,-0.12454 v 0.004 l -0.1204,-0.12454 v 0.005 l -0.12144,-0.12558 v 0.004 l -0.12093,-0.12506 v 0.004 l -0.12144,-0.12558 v 0.004 l -0.12195,-0.12609 v 0.004 l -0.12248,-0.12661 v 0.004 l -0.12195,-0.12609 v 0.004 l -0.12299,-0.12713 v 0.004 l -0.12299,-0.12712 v 0.004 l -0.12351,-0.12764 v 0.004 l -0.12351,-0.12764 v 0.004 l -0.1235,-0.12764 v 0.004 l -0.12454,-0.12868 v 0.004 l -0.12454,-0.12867 v 0.004 l -0.12454,-0.12868 v 0.004 l -0.12506,-0.12919 v 0.004 l -0.12557,-0.1297 v 0.004 l -0.12558,-0.12971 v 0.004 l -0.12557,-0.12971 v 0.005 l -0.12661,-0.13074 v 0.004 l -0.12609,-0.13023 v 0.004 l -0.12712,-0.13126 v 0.004 l -0.12713,-0.13126 v 0.004 l -0.12712,-0.13126 v 0.004 l -0.12764,-0.13178 v 0.004 l -0.12816,-0.13229 v 0.004 l -0.12816,-0.13229 v 0.005 l -0.12867,-0.13281 v 0.004 l -0.12867,-0.13281 v 0.004 l -0.12919,-0.13332 v 0.004 l -0.1292,-0.13333 v 0.004 l -0.1297,-0.13384 v 0.005 l -0.13023,-0.13487 v 0.005 l -0.13022,-0.13487 v 0.005 l -0.13023,-0.13487 v 0.005 l -0.13126,-0.13591 v 0.004 l -0.13074,-0.1354 v 0.005 l -0.13177,-0.13643 v 0.005 l -0.13178,-0.13643 v 0.004 l -0.13177,-0.13643 v 0.005 l -0.1323,-0.13694 v 0.005 l -0.1328,-0.13745 v 0.005 l -0.13281,-0.13746 v 0.005 l -0.13281,-0.13746 v 0.005 l -0.13384,-0.13849 v 0.005 l -0.13385,-0.1385 v 0.005 l -0.13383,-0.13849 v 0.005 l -0.13437,-0.13901 v 0.005 l -0.13435,-0.13901 v 0.005 l -0.1354,-0.14004 v 0.004 l -0.13487,-0.13952 v 0.005 l -0.13539,-0.14004 v 0.005 l -0.13591,-0.14056 v 0.005 l -0.13643,-0.14108 v 0.004 l -0.13591,-0.14056 v 0.005 l -0.13694,-0.1416 v 0.005 l -0.13694,-0.14159 v 0.005 l -0.13695,-0.14159 v 0.005 l -0.13797,-0.14262 v 0.005 l -0.13746,-0.14212 v 0.005 l -0.13849,-0.14314 v 0.005 l -0.13798,-0.14262 v 0.005 l -0.13901,-0.14366 v 0.005 l -0.13901,-0.14366 v 0.005 l -0.13901,-0.14367 v 0.005 l -0.13952,-0.14418 v 0.005 l -0.14005,-0.14469 v 0.005 l -0.14004,-0.14469 v 0.005 l -0.14056,-0.14521 v 0.005 l -0.14056,-0.1452 v 0.005 l -0.14108,-0.14572 v 0.005 l -0.14159,-0.14624 v 0.005 l -0.14159,-0.14625 v 0.005 l -0.1416,-0.14625 v 0.005 l -0.14211,-0.14676 v 0.005 l -0.14263,-0.14727 v 0.005 l -0.14262,-0.14727 v 0.005 l -0.14314,-0.14779 v 0.005 l -0.14315,-0.14779 v 0.005 l -0.14366,-0.14832 v 0.005 l -0.14418,-0.14883 v 0.005 l -0.14417,-0.14883 v 0.005 l -0.1447,-0.14935 v 0.005 l -0.14469,-0.14934 v 0.005 l -0.14521,-0.15038 v 0.005 l -0.14521,-0.15038 v 0.005 l -0.14573,-0.1509 v 0.005 l -0.14573,-0.15089 v 0.005 l -0.14624,-0.15142 v 0.005 l -0.14676,-0.15193 v 0.005 l -0.14676,-0.15193 v 0.005 l -0.14728,-0.15244 v 0.005 l -0.14728,-0.15245 v 0.005 l -0.1478,-0.15296 v 0.005 l -0.14779,-0.15304 v 0.005 l -0.14831,-0.15348 v 0.006 l -0.14883,-0.15399 v 0.005 l -0.14883,-0.15399 v 0.005 l -0.14883,-0.154 v 0.005 l -0.14934,-0.15451 v 0.005 l -0.14986,-0.15503 v 0.005 l -0.14986,-0.15503 v 0.005 l -0.15038,-0.15555 v 0.005 l -0.1509,-0.15606 v 0.005 l -0.15089,-0.15607 v 0.005 l -0.1509,-0.15606 v 0.005 l -0.15141,-0.15658 v 0.005 l -0.15193,-0.15709 v 0.005 l -0.15193,-0.1571 v 0.005 l -0.15244,-0.15762 v 0.006 l -0.15296,-0.15813 v 0.005 l -0.15297,-0.15813 v 0.005 l -0.15296,-0.15813 v 0.005 l -0.15348,-0.15865 v 0.005 l -0.15399,-0.15916 v 0.005 l -0.154,-0.15905 v 0.005 l -0.15451,-0.15968 v 0.005 l -0.15451,-0.15968 v 0.005 l -0.15503,-0.1602 v 0.005 l -0.15503,-0.1602 v 0.005 l -0.15555,-0.16071 v 0.005 l -0.15606,-0.16123 v 0.005 l -0.15606,-0.16122 v 0.006 l -0.15658,-0.16174 v 0.005 l -0.15659,-0.16174 v 0.005 l -0.15709,-0.16226 v 0.005 l -0.1571,-0.16226 v 0.005 l -0.15761,-0.16278 v 0.005 l -0.15761,-0.16278 v 0.005 l -0.15813,-0.1633 v 0.005 l -0.15865,-0.16382 v 0.005 l -0.15865,-0.16381 v 0.005 l -0.15916,-0.16433 v 0.005 l -0.15916,-0.16433 v 0.005 l -0.15968,-0.16485 v 0.005 l -0.15968,-0.16485 v 0.005 l -0.1602,-0.16536 v 0.006 l -0.16071,-0.1664 v 0.006 l -0.16072,-0.1664 v 0.006 l -0.16123,-0.16691 v 0.006 l -0.16123,-0.16692 v 0.006 l -0.16174,-0.16743 v 0.006 l -0.16175,-0.16743 v 0.006 l -0.16227,-0.16794 v 0.006 l -0.16278,-0.16846 v 0.006 l -0.16278,-0.16847 v 0.006 l -0.16278,-0.16847 v 0.006 l -0.1633,-0.16898 v 0.006 l -0.16381,-0.1695 v 0.006 l -0.16381,-0.1695 v 0.006 l -0.16434,-0.17001 v 0.006 l -0.16485,-0.17053 v 0.006 l -0.16484,-0.17053 v 0.006 l -0.16485,-0.17053 v 0.006 l -0.16536,-0.17105 v 0.006 l -0.16589,-0.17157 v 0.006 l -0.16588,-0.17156 v 0.006 l -0.16639,-0.17208 v 0.006 l -0.1664,-0.17208 v 0.006 l -0.16692,-0.1726 v 0.006 l -0.16743,-0.17311 v 0.006 l -0.16743,-0.17312 v 0.006 l -0.16743,-0.17312 v 0.006 l -0.16847,-0.17415 v 0.005 l -0.16795,-0.17364 v 0.006 l -0.16898,-0.17466 v 0.005 l -0.16846,-0.17415 v 0.006 l -0.1695,-0.17519 v 0.006 l -0.1695,-0.17518 v 0.006 l -0.1695,-0.17519 v 0.006 l -0.17001,-0.1757 v 0.006 l -0.17054,-0.17622 v 0.006 l -0.17053,-0.17622 v 0.006 l -0.17105,-0.17673 v 0.006 l -0.17105,-0.17674 v 0.006 l -0.17156,-0.17725 v 0.006 l -0.17209,-0.17776 v 0.006 l -0.17208,-0.17776 v 0.006 l -0.17208,-0.17777 v 0.006 l -0.17312,-0.1788 v 0.005 l -0.1726,-0.17828 v 0.006 l -0.17363,-0.17932 v 0.005 l -0.17312,-0.1788 v 0.006 l -0.17414,-0.17984 v 0.006 l -0.17416,-0.17983 v 0.006 l -0.17414,-0.17984 v 0.006 l -0.17467,-0.18035 v 0.006 l -0.17518,-0.18087 v 0.006 l -0.17519,-0.18087 v 0.006 l -0.1757,-0.18139 v 0.006 l -0.1757,-0.18139 v 0.006 l -0.17621,-0.18242 v 0.006 l -0.17674,-0.18294 v 0.006 l -0.17673,-0.18293 v 0.006 l -0.17673,-0.18293 v 0.006 l -0.17725,-0.18345 v 0.006 l -0.17777,-0.18397 v 0.006 l -0.17777,-0.18397 v 0.006 l -0.17828,-0.18448 v 0.006 l -0.1788,-0.185 v 0.006 l -0.1788,-0.185 v 0.006 l -0.1788,-0.185 v 0.006 l -0.17932,-0.18552 v 0.006 l -0.17983,-0.18603 v 0.006 l -0.17984,-0.18604 v 0.006 l -0.18035,-0.18655 v 0.006 l -0.18035,-0.18655 v 0.006 l -0.18087,-0.18707 v 0.006 l -0.18086,-0.18707 v 0.007 l -0.1819,-0.1881 v 0.006 l -0.18139,-0.18759 v 0.006 l -0.1819,-0.18811 v 0.006 l -0.18242,-0.18862 v 0.006 l -0.18242,-0.18861 v 0.006 l -0.18293,-0.18914 v 0.006 l -0.18294,-0.18913 v 0.006 l -0.18345,-0.18966 v 0.006 l -0.18396,-0.19016 v 0.006 l -0.18397,-0.19017 v 0.006 l -0.18449,-0.19069 v 0.006 l -0.18448,-0.19068 v 0.007 l -0.185,-0.1912 v 0.006 l -0.185,-0.1912 v 0.006 l -0.18553,-0.19171 v 0.006 l -0.18551,-0.19172 v 0.006 l -0.18604,-0.19224 v 0.006 l -0.18655,-0.19275 v 0.006 l -0.18655,-0.19275 v 0.006 l -0.18707,-0.19327 v 0.006 l -0.18707,-0.19327 v 0.006 l -0.18759,-0.19379 v 0.006 l -0.18758,-0.19378 v 0.006 l -0.1881,-0.1943 v 0.007 l -0.18862,-0.19482 v 0.006 l -0.18862,-0.19482 v 0.006 l -0.18862,-0.1944 v 0.006 l -0.18913,-0.19534 v 0.006 l -0.18966,-0.19585 v 0.006 l -0.18965,-0.19586 v 0.006 l -0.19017,-0.19638 v 0.006 l -0.19068,-0.19689 v 0.006 l -0.19069,-0.19689 v 0.006 l -0.19069,-0.19688 v 0.007 l -0.19172,-0.19844 v 0.006 l -0.1912,-0.19792 v 0.007 l -0.19172,-0.19843 v 0.007 l -0.19223,-0.19896 v 0.007 l -0.19276,-0.19947 v 0.007 l -0.19275,-0.19947 v 0.006 l -0.19275,-0.19947 v 0.007 l -0.19327,-0.19999 v 0.007 l -0.19379,-0.2005 v 0.007 l -0.19379,-0.20051 v 0.007 l -0.1943,-0.20102 v 0.007 l -0.1943,-0.20102 v 0.007 l -0.19482,-0.20154 v 0.007 l -0.19482,-0.20145 v 0.007 l -0.19534,-0.20206 v 0.007 l -0.19585,-0.20257 v 0.007 l -0.19586,-0.20257 v 0.007 l -0.19637,-0.20309 v 0.007 l -0.19637,-0.20308 v 0.007 l -0.19689,-0.20361 v 0.007 l -0.19689,-0.20361 v 0.007 l -0.1974,-0.20412 v 0.007 l -0.1974,-0.20412 v 0.007 l -0.19844,-0.20516 v 0.006 l -0.19792,-0.20464 v 0.007 l -0.19844,-0.20515 v 0.007 l -0.19895,-0.20567 v 0.007 l -0.19896,-0.20568 v 0.007 l -0.19947,-0.20618 v 0.007 l -0.19998,-0.20671 v 0.007 l -0.19999,-0.2067 v 0.007 l -0.19999,-0.20671 v 0.007 l -0.2005,-0.20722 v 0.007 l -0.20103,-0.20774 v 0.007 l -0.20102,-0.20774 v 0.007 l -0.20154,-0.20826 v 0.007 l -0.20153,-0.20825 v 0.007 l -0.20206,-0.20877 v 0.007 l -0.20257,-0.20929 v 0.007 l -0.20257,-0.20929 v 0.007 l -0.20257,-0.20929 v 0.007 l -0.20361,-0.21032 v 0.007 l -0.20309,-0.20981 v 0.007 l -0.20412,-0.21084 v 0.007 l -0.20412,-0.21084 v 0.006 l -0.20412,-0.21084 v 0.007 l -0.20464,-0.21136 v 0.007 l -0.20464,-0.21135 v 0.007 l -0.20567,-0.21239 v 0.007 l -0.20516,-0.21187 v 0.007 l -0.20567,-0.2124 v 0.007 l -0.20619,-0.2129 v 0.007 l -0.2067,-0.21394 v 0.008 l -0.20671,-0.21394 v 0.007 l -0.20671,-0.21394 v 0.007 l -0.20722,-0.21445 v 0.007 l -0.20774,-0.21497 v 0.007 l -0.20774,-0.21497 v 0.008 l -0.20825,-0.21549 v 0.007 l -0.20826,-0.21549 v 0.007 l -0.20877,-0.21601 v 0.007 l -0.20877,-0.216 v 0.007 l -0.2093,-0.21652 v 0.007 l -0.2098,-0.21704 v 0.007 l -0.20981,-0.21704 v 0.007 l -0.2098,-0.21704 v 0.007 l -0.21084,-0.21808 v 0.007 l -0.21033,-0.21756 v 0.007 l -0.21135,-0.21859 v 0.007 l -0.21136,-0.21859 v 0.007 l -0.21136,-0.21859 v 0.007 l -0.21187,-0.21911 v 0.007 l -0.21239,-0.21963 v 0.007 l -0.21239,-0.21962 v 0.007 l -0.21291,-0.22014 v 0.007 l -0.2129,-0.22014 v 0.007 l -0.21343,-0.220657 v 0.007 l -0.21342,-0.22066 v 0.007 l -0.21394,-0.22117 v 0.007 l -0.21446,-0.2217 v 0.007 l -0.21446,-0.22169 v 0.007 l -0.21445,-0.22169 v 0.007 l -0.21549,-0.22273 v 0.007 l -0.21498,-0.22221 v 0.007 l -0.216,-0.22324 v 0.007 l -0.21601,-0.22324 v 0.007 l -0.21601,-0.22324 v 0.007 l -0.21652,-0.22376 v 0.007 l -0.21705,-0.22428 v 0.007 l -0.21704,-0.22428 v 0.007 l -0.21756,-0.22479 v 0.007 l -0.21755,-0.22479 v 0.007 l -0.21808,-0.22531 v 0.007 l -0.21807,-0.22531 v 0.007 l -0.21859,-0.22582 v 0.007 l -0.21968,-0.28666 v 0.007 l -0.21911,-0.22634 v 0.007 l -0.21911,-0.22635 v 0.008 l -0.22014,-0.22737 v 0.007 l -0.21962,-0.22687 v 0.007 l -0.22066,-0.227888 v 0.0078 l -0.22066,-0.227894 v 0.0067 l -0.22066,-0.227894 v 0.0072 l -0.22117,-0.228409 v 0.0078 l -0.2217,-0.229444 v 0.0078 l -0.22169,-0.229444 v 0.0078 l -0.22169,-0.229444 v 0.0078 l -0.22272,-0.230479 v 0.0083 l -0.22273,-0.230475 v 0.0072 l -0.22273,-0.230476 v 0.0078 l -0.22324,-0.230994 v 0.0078 l -0.22324,-0.230995 v 0.0078 l -0.22376,-0.231511 v 0.0078 l -0.22427,-0.232027 v 0.0078 l -0.22428,-0.232029 v 0.0078 l -0.22479,-0.232542 v 0.0078 l -0.22479,-0.232542 v 0.0078 l -0.22531,-0.233061 v 0.0078 l -0.22583,-0.233577 v 0.0078 l -0.22583,-0.233577 v 0.0078 l -0.22582,-0.233577 v 0.0078 l -0.22634,-0.234093 v 0.0078 l -0.22686,-0.234608 v 0.0078 l -0.22686,-0.234611 v 0.0078 l -0.22738,-0.235127 v 0.0078 l -0.22789,-0.235646 v 0.0078 l -0.2279,-0.235646 v 0.0078 l -0.22789,-0.235646 v 0.0078 l -0.22841,-0.236162 v 0.0078 l -0.22893,-0.236678 v 0.0078 l -0.22892,-0.236677 v 0.0078 l -0.22945,-0.237194 v 0.0078 l -0.22944,-0.237193 v 0.0078 l -0.22996,-0.237712 v 0.0078 l -0.22996,-0.237712 v 0.0078 l -0.23048,-0.238231 v 0.0078 l -0.23099,-0.238744 v 0.0078 l -0.23099,-0.238747 v 0.0078 l -0.23151,-0.239262 v 0.0078 l -0.23151,-0.239263 v 0.0078 l -0.23203,-0.239778 v 0.0078 l -0.23203,-0.239781 v 0.0078 l -0.23254,-0.240294 v 0.0078 l -0.23306,-0.240813 v 0.0078 l -0.23306,-0.240813 v 0.0078 l -0.23307,-0.240813 v 0.0078 l -0.23409,-0.241845 v 0.0078 l -0.23358,-0.241329 v 0.0078 l -0.23461,-0.242364 v 0.0083 l -0.23461,-0.242361 v 0.0072 l -0.23461,-0.242361 v 0.0078 l -0.23513,-0.24288 v 0.0083 l -0.23564,-0.243396 v 0.0072 l -0.23564,-0.243398 v 0.0078 L 221.742,82.270981 v 0.0078 l -0.23668,-0.24443 v 0.0078 l -0.23616,-0.243911 v 0.0083 l -0.23719,-0.247727 v 0.0083 l -0.2372,-0.245465 v 0.0083 l -0.23719,-0.245461 v 0.0083 l -0.23772,-0.245981 v 0.0083 l -0.23822,-0.246496 v 0.0083 l -0.23823,-0.246497 v 0.0083 l -0.23875,-0.247015 v 0.0083 l -0.23874,-0.247012 v 0.0083 l -0.23927,-0.247531 v 0.0083 l -0.23926,-0.247528 v 0.0083 l -0.23977,-0.248047 v 0.0083 l -0.2403,-0.248566 v 0.0083 l -0.2403,-0.248562 v 0.0083 l -0.24081,-0.249082 v 0.0083 l -0.24081,-0.249079 v 0.0083 l -0.24133,-0.249597 v 0.0083 l -0.24133,-0.249597 v 0.0083 l -0.24184,-0.250114 v 0.0083 l -0.24237,-0.250631 v 0.0083 l -0.24236,-0.25063 v 0.0083 l -0.24236,-0.250198 v 0.0083 l -0.24288,-0.251147 v 0.0083 l -0.2434,-0.251664 v 0.0083 l -0.24339,-0.251664 v 0.0083 l -0.24392,-0.252182 v 0.0083 l -0.24442,-0.252698 v 0.0083 l -0.24443,-0.253866 v 0.0083 l -0.24443,-0.252698 v 0.0083 l -0.24495,-0.253214 v 0.0083 l -0.24546,-0.253733 v 0.0083 l -0.24547,-0.25373 v 0.0083 l -0.24598,-0.254249 v 0.0083 L 213.2991,73.82623 v 0.0083 l -0.24649,-0.254764 v 0.0083 l -0.24702,-0.255281 v 0.0083 l -0.24701,-0.25528 v 0.0088 l -0.24753,-0.255799 v 0.0078 l -0.24753,-0.255799 v 0.0083 l -0.24753,-0.2558 v 0.0083 l -0.24856,-0.256831 v 0.0083 l -0.24857,-0.256831 v 0.0083 l -0.24856,-0.256831 v 0.0083 l -0.24908,-0.257347 v 0.0088 l -0.2496,-0.257866 v 0.0078 l -0.2496,-0.257865 v 0.0083 l -0.24959,-0.257866 v 0.0088 l -0.25063,-0.258897 v 0.0078 l -0.25012,-0.258384 v 0.0083 l -0.25115,-0.259416 v 0.0083 l -0.25114,-0.259413 v 0.0083 l -0.25115,-0.259414 v 0.0083 l -0.25166,-0.259934 v 0.0083 l -0.25218,-0.260448 v 0.0083 l -0.25218,-0.260451 v 0.0088 l -0.2527,-0.261482 v 0.0088 l -0.2527,-0.261482 v 0.0088 l -0.25322,-0.261998 v 0.0088 l -0.25321,-0.261999 v 0.0088 l -0.25373,-0.262517 v 0.0088 l -0.25425,-0.263033 v 0.0088 l -0.25425,-0.263033 v 0.0088 l -0.25425,-0.263032 v 0.0088 l -0.25528,-0.264065 v 0.0088 l -0.25476,-0.263551 v 0.0088 l -0.2558,-0.264584 v 0.0088 l -0.2558,-0.264584 v 0.0088 l -0.2558,-0.264583 v 0.0088 l -0.25631,-0.265102 v 0.0088 l -0.25683,-0.265618 v 0.0088 l -0.25684,-0.265615 v 0.0088 l -0.25735,-0.266134 v 0.0088 l -0.25734,-0.266134 v 0.0088 l -0.25787,-0.26665 v 0.0088 l -0.25786,-0.26665 v 0.0088 l -0.25838,-0.267168 v 0.0088 l -0.2589,-0.267684 v 0.0088 l -0.2589,-0.267684 v 0.0088 l -0.2589,-0.267684 v 0.0088 l -0.25993,-0.268716 v 0.0088 l -0.25942,-0.2682 v 0.0088 l -0.26045,-0.269235 v 0.0088 l -0.26045,-0.269232 v 0.0088 l -0.26045,-0.269235 v 0.0088 l -0.26097,-0.26975 v 0.0088 l -0.26148,-0.27027 v 0.0088 l -0.26148,-0.27027 v 0.0093 l -0.262,-0.270785 v 0.0083 l -0.262,-0.270786 v 0.0088 l -0.26251,-0.271302 v 0.0088 l -0.26252,-0.271301 v 0.0088 l -0.26303,-0.271817 v 0.0093 l -0.26356,-0.272333 v 0.0083 l -0.26354,-0.272336 v 0.0088 l -0.26355,-0.272336 v 0.0088 l -0.26407,-0.272851 v 0.0088 L 197.205,57.733424 v 0.0093 l -0.2651,-0.273883 v 0.0083 l -0.26459,-0.27337 v 0.0088 l -0.26561,-0.274402 v 0.0088 l -0.26562,-0.274402 v 0.0093 l -0.26614,-0.274918 v 0.0083 l -0.26613,-0.27492 v 0.0088 l -0.26613,-0.274921 v 0.0088 l -0.26717,-0.275952 v 0.0088 l -0.26665,-0.275434 v 0.0093 l -0.26768,-0.276984 v 0.0093 l -0.26769,-0.276984 v 0.0093 l -0.26768,-0.2766 v 0.0093 l -0.2682,-0.277503 v 0.0093 l -0.26872,-0.278019 v 0.0093 l -0.26872,-0.279934 v 0.0093 l -0.26923,-0.278534 v 0.0093 l -0.26924,-0.278537 v 0.0093 l -0.26975,-0.279054 v 0.0093 l -0.27026,-0.27957 v 0.0093 l -0.27027,-0.27957 v 0.0093 l -0.27027,-0.27957 v 0.0093 l -0.27078,-0.280085 v 0.0093 l -0.27131,-0.280604 v 0.0093 l -0.2713,-0.280603 v 0.0093 l -0.27181,-0.28112 v 0.0098 l -0.27234,-0.281636 v 0.0088 l -0.27182,-0.28112 v 0.0093 l -0.27285,-0.282154 v 0.0093 l -0.27285,-0.282154 v 0.0093 l -0.27337,-0.28267 v 0.0093 l -0.27337,-0.28267 v 0.0093 l -0.27388,-0.283186 v 0.0093 l -0.27389,-0.283186 v 0.0093 l -0.2744,-0.283702 v 0.0093 l -0.2744,-0.283702 v 0.0093 l -0.27492,-0.284221 v 0.0093 l -0.27543,-0.284736 v 0.0093 l -0.27544,-0.284739 v 0.0093 l -0.27595,-0.285255 v 0.0093 l -0.27595,-0.285252 v 0.0093 l -0.27647,-0.285771 v 0.0093 l -0.27647,-0.285772 v 0.0093 l -0.27699,-0.286287 v 0.0098 l -0.2775,-0.286806 v 0.0088 l -0.2775,-0.286805 v 0.0093 l -0.27751,-0.286806 v 0.0093 L 184.44763,44.9746 v 0.0093 l -0.27853,-0.287837 v 0.0093 l -0.27854,-0.287838 v 0.0093 l -0.27905,-0.288356 v 0.0093 l -0.27957,-0.288872 v 0.0093 l -0.27957,-0.288872 v 0.0093 l -0.27957,-0.288872 v 0.0093 l -0.28008,-0.289388 v 0.0093 l -0.28061,-0.289907 v 0.0093 l -0.2806,-0.289904 v 0.0093 l -0.28112,-0.29042 v 0.0093 l -0.28164,-0.290938 v 0.0098 l -0.28163,-0.290939 v 0.0088 l -0.28164,-0.290938 v 0.0093 l -0.28215,-0.291454 v 0.0093 l -0.28267,-0.291973 v 0.0093 l -0.28267,-0.291973 v 0.0098 l -0.28319,-0.293005 v 0.0098 l -0.28319,-0.293005 v 0.0098 l -0.2837,-0.293524 v 0.0098 l -0.2837,-0.293521 v 0.0098 l -0.28422,-0.294037 v 0.0098 l -0.28474,-0.294558 v 0.0098 l -0.28474,-0.294555 v 0.01035 l -0.28525,-0.295074 v 0.0093 L 177.4,37.926817 v 0.0098 l -0.28577,-0.29559 v 0.0098 l -0.28577,-0.295587 v 0.0098 l -0.28628,-0.296106 v 0.0098 l -0.28629,-0.296106 v 0.0098 l -0.28681,-0.296622 v 0.0098 l -0.28732,-0.29714 v 0.0098 l -0.28732,-0.29714 v 0.0098 L 175.1066,35.63327 v 0.0098 l -0.28784,-0.297657 v 0.0098 l -0.28835,-0.298172 v 0.0098 l -0.28835,-0.298172 v 0.0098 l -0.28887,-0.298688 v 0.0098 l -0.28939,-0.299442 v 0.0098 l -0.28939,-0.299207 v 0.0098 l -0.2899,-0.299722 v 0.0098 l -0.28991,-0.299723 v 0.0098 z"
       id="path26636"
       inkscape:connector-curvature="0"
       inkscape:export-filename="/home/stefan/path26636.png"
       inkscape:export-xdpi="130"
       inkscape:export-ydpi="130" />
    <path
       style="opacity:1;fill:#1976d2;fill-opacity:1;stroke:#0d0d0d;stroke-width:6;stroke-linecap:butt;stroke-linejoin:miter;stroke-miterlimit:4;stroke-dasharray:none;stroke-opacity:1"
       d="M 172.21366,32.740712 V 148.07606 l 27.73309,-23.66045 20.34913,40.43382 18.87219,-9.85383 -21.05841,-38.36653 h 35.24861 z"
       id="path3761"
       inkscape:connector-curvature="0"
       sodipodi:nodetypes="cccccccc"
       inkscape:export-filename="/home/stefan/path26636.png"
       inkscape:export-xdpi="130"
       inkscape:export-ydpi="130" />
  </g>
</svg>
